<?xml version="1.0" encoding="UTF-8"?>
<svg id="Layer_1" xmlns="http://www.w3.org/2000/svg" version="1.1" viewBox="0 0 285.2 42.7">
  <!-- Generator: Adobe Illustrator 29.5.1, SVG Export Plug-In . SVG Version: 2.1.0 Build 141)  -->
  <defs>
    <style>
      .st0 {
        fill: #ee3a39;
      }

      .st0, .st1 {
        fill-rule: evenodd;
      }

      .st2 {
        fill: #231f20;
      }

      .st1 {
        fill: #3d3d3d;
      }
    </style>
  </defs>
  <polygon class="st1" points="31.7 35 21.1 35 14 35 17.6 28.8 21.1 22.7 24.6 16.6 28.1 22.7 31.7 28.8 35.2 35 38.7 41.1 39.7 41.1 45.8 41.1 39.7 30.5 24.6 4.4 21.1 10.5 17.6 16.6 14 22.7 10.5 28.8 7 35 3.5 41.1 10.5 41.1 17.6 41.1 24.6 41.1 35.2 41.1 31.7 35"/>
  <polygon class="st0" points="45.8 10.5 53.7 10.5 57.3 4.4 45.8 4.4 39.7 4.4 28.1 4.4 28.1 4.4 31.7 10.5 39.7 10.5 39.7 24.4 45.8 35 45.8 10.5"/>
  <g>
    <path class="st2" d="M89.6,18.4c-1.6-1.3-4.6-3.7-9.1-3.7-6.4,0-10.6,5.7-10.6,11.4s4.5,10.9,10,10.9,8.4-2.6,9.7-3.7v4.8c-1.8.9-5.2,2.7-9.9,2.7-7.9,0-14.6-5.9-14.6-14.7s6.5-15.2,15.2-15.2,7.3,1.5,9.2,2.6v4.8Z"/>
    <path class="st2" d="M102,30.5c0-5.9,5-10.3,11.3-10.3s11.2,4.9,11.2,10.3-5.4,10.4-11.1,10.4-11.4-4.5-11.4-10.4ZM119.9,30.5c0-3.8-2.8-6.8-6.6-6.8s-6.7,3.1-6.7,6.9,3,6.8,6.5,6.8,6.8-3.2,6.8-6.9Z"/>
    <path class="st2" d="M157.3,40.4h-4.3v-12.1c0-2.3-1.1-4.4-4.1-4.4s-6.1,3.9-6.1,7.2v9.4h-4.3v-19.7h3.9l.3,3.3h0c.9-1.4,2.5-3.8,6.9-3.8s7.5,3.5,7.5,6.7v13.5Z"/>
    <path class="st2" d="M191.4,40.4h-4.3v-12.1c0-2.3-1.1-4.4-4.1-4.4s-6.1,3.9-6.1,7.2v9.4h-4.3v-19.7h3.9l.3,3.3h0c.9-1.4,2.5-3.8,6.9-3.8s7.5,3.5,7.5,6.7v13.5Z"/>
    <path class="st2" d="M210.1,30.5c.3,5.3,4.9,6.6,7.3,6.6s6-1.7,8.1-3.7v4.8c-1.4.8-4.4,2.7-8.9,2.7-7,0-11.2-5.1-11.2-10.4s5.2-10.3,10.9-10.3,5.7.6,7.9,3.7c1.9,2.5,1.9,5.1,1.9,6.6h-16.2ZM221.2,27.4c-.4-2.7-2.7-3.9-4.8-3.9s-3.9,0-5.7,3.9h10.6Z"/>
    <path class="st2" d="M255.8,26.2c-2.8-2.3-5.2-2.3-6.2-2.3-4.5,0-6.9,3.4-6.9,6.7s3,6.7,6.7,6.7,3.3,0,6.4-2.4v4.2c-1.1.5-3.8,1.9-7,1.9-6.2,0-10.7-4.6-10.7-10.2s4.7-10.5,11.1-10.5,5.1,1,6.6,1.7v4.2Z"/>
    <path class="st2" d="M274.8,14.8v5.9h5.9v3.3h-5.9v10.7c0,2.3,1.7,2.7,3.1,2.7s1.6-.1,2.8-.7v3.5c-.8.3-2.1.7-4.2.7-3.7,0-6-1.4-6-5v-11.9h-3.6v-3.3h3.6l.4-5.9h3.9Z"/>
  </g>
</svg>