<?xml version="1.0" encoding="UTF-8"?>
<svg id="Layer_1" xmlns="http://www.w3.org/2000/svg" version="1.1" viewBox="0 0 300 60">
  <!-- Generator: Adobe Illustrator 29.5.1, SVG Export Plug-In . SVG Version: 2.1.0 Build 141)  -->
  <defs>
    <style>
      .st0 {
        fill: #221f1f;
      }

      .st1 {
        fill: #ee384b;
      }
    </style>
  </defs>
  <g>
    <path class="st0" d="M63.4,20.6h9.9c.3,0,.6.1.8.4.2.3.3.6.3,1s-.1.7-.3,1c-.2.2-.5.4-.8.4h-9l.3-.6v8.7l-.3-.4h7.7c.3,0,.6.1.8.4s.3.6.3,1-.1.7-.3,1c-.2.2-.5.4-.8.4h-7.7l.2-.3v8.9l-.2-.2h8.9c.3,0,.6.1.8.4.2.3.3.6.3.9s-.1.7-.3,1c-.2.3-.5.4-.8.4h-9.9c-.3,0-.6-.1-.8-.4s-.3-.6-.3-1v-21.3c0-.4.1-.7.3-1s.5-.4.8-.4Z"/>
    <path class="st0" d="M77.8,26.6c.2,0,.4,0,.6.2.2.2.4.4.4.7l4.6,13.4-.4.3,4.7-13.7c.2-.6.6-.9,1.1-.9.3,0,.5.1.7.3.2.2.3.5.3.9s0,.3,0,.4c0,.1,0,.2,0,.3l-5.4,15.3c-.2.6-.5.9-1,.9-.2,0-.5,0-.7-.2-.2-.2-.4-.4-.5-.7l-5.4-15.3c0,0,0-.2,0-.3,0-.1,0-.3,0-.4,0-.3,0-.6.3-.9.2-.3.5-.4.8-.4Z"/>
    <path class="st0" d="M106.5,35.8c0,1.8-.3,3.4-1,4.8-.6,1.4-1.5,2.5-2.6,3.3-1.1.8-2.3,1.2-3.7,1.2s-2.6-.4-3.7-1.2c-1.1-.8-2-1.9-2.6-3.3-.6-1.4-1-3-1-4.8s.3-3.4,1-4.8,1.5-2.5,2.6-3.3c1.1-.8,2.3-1.2,3.7-1.2s2.6.4,3.7,1.2c1.1.8,1.9,1.9,2.6,3.3.6,1.4,1,3,1,4.8ZM104.2,35.8c0-1.3-.2-2.5-.7-3.5-.4-1-1-1.8-1.8-2.4-.8-.6-1.6-.9-2.5-.9s-1.8.3-2.5.9c-.8.6-1.4,1.4-1.8,2.4-.4,1-.7,2.2-.7,3.5s.2,2.5.7,3.5c.4,1,1,1.8,1.8,2.4.8.6,1.6.9,2.5.9s1.8-.3,2.5-.9c.8-.6,1.3-1.4,1.8-2.4.4-1,.7-2.2.7-3.5Z"/>
    <path class="st0" d="M112.3,43.3c0,.4-.1.7-.3,1-.2.3-.5.4-.8.4s-.6-.1-.8-.4-.3-.6-.3-1v-22.7c0-.4.1-.7.3-1,.2-.3.5-.4.8-.4s.6.1.8.4c.2.3.3.6.3,1v22.7Z"/>
    <path class="st0" d="M123.2,45.1c-1.5,0-2.8-.4-3.9-1.2-1.1-.8-2-1.9-2.6-3.2-.6-1.4-.9-3-.9-4.7s.3-3.7,1-5.1c.6-1.4,1.5-2.5,2.5-3.2,1-.7,2.1-1.1,3.3-1.1s1.7.2,2.5.6,1.5,1,2.1,1.7c.6.8,1.1,1.7,1.5,2.7.4,1,.6,2.2.6,3.5,0,.4-.1.7-.3.9-.2.2-.5.4-.8.4h-11l-.5-2.4h10.7l-.4.5v-.8c0-.9-.3-1.8-.7-2.4-.4-.7-1-1.2-1.6-1.6-.6-.4-1.3-.6-2-.6s-1.1.1-1.7.4c-.5.3-1,.6-1.5,1.2-.4.5-.8,1.2-1.1,2.1-.3.9-.4,1.9-.4,3.1s.2,2.5.7,3.5c.4,1,1,1.8,1.8,2.4.8.6,1.7.9,2.7.9s1.2-.1,1.7-.3c.5-.2.9-.5,1.2-.8s.6-.6.9-.9c.2-.2.5-.3.7-.3s.5.1.7.3c.2.2.3.5.3.8s-.1.7-.4,1.1c-.5.7-1.2,1.3-2.1,1.9-.9.5-1.8.8-2.8.8Z"/>
    <path class="st0" d="M144.4,19.2c.3,0,.6.1.8.4.2.3.3.6.3,1v22.7c0,.4-.1.7-.3,1s-.5.4-.8.4-.6-.1-.8-.4c-.2-.3-.3-.6-.3-1v-3.3l.5-.2c0,.5-.1,1.1-.4,1.7s-.6,1.2-1.1,1.7c-.5.5-1.1,1-1.7,1.3-.7.3-1.4.5-2.1.5-1.3,0-2.4-.4-3.4-1.2-1-.8-1.8-1.9-2.4-3.3-.6-1.4-.9-3-.9-4.8s.3-3.4.9-4.8c.6-1.4,1.4-2.5,2.4-3.3,1-.8,2.1-1.2,3.4-1.2s1.5.2,2.2.5c.7.3,1.3.8,1.8,1.3.5.6.9,1.2,1.2,1.8.3.7.4,1.3.4,2l-.7-.2v-11.2c0-.4.1-.7.3-1,.2-.3.5-.4.8-.4ZM138.7,42.5c.9,0,1.7-.3,2.4-.9.7-.6,1.3-1.4,1.7-2.4.4-1,.6-2.2.6-3.5s-.2-2.4-.6-3.5-1-1.8-1.7-2.4c-.7-.6-1.5-.9-2.4-.9s-1.7.3-2.4.9c-.7.6-1.3,1.4-1.7,2.4s-.6,2.2-.6,3.5.2,2.4.6,3.4c.4,1,1,1.8,1.7,2.4.7.6,1.5.9,2.4.9Z"/>
    <path class="st0" d="M156.3,45.1c-1.5,0-2.8-.4-3.9-1.2-1.1-.8-2-1.9-2.6-3.2-.6-1.4-.9-3-.9-4.7s.3-3.7,1-5.1c.6-1.4,1.5-2.5,2.5-3.2,1-.7,2.1-1.1,3.3-1.1s1.7.2,2.5.6c.8.4,1.5,1,2.1,1.7.6.8,1.1,1.7,1.5,2.7s.6,2.2.6,3.5c0,.4-.1.7-.3.9s-.5.4-.8.4h-11l-.5-2.4h10.7l-.4.5v-.8c0-.9-.3-1.8-.7-2.4-.4-.7-1-1.2-1.6-1.6-.6-.4-1.3-.6-2-.6s-1.1.1-1.7.4c-.5.3-1,.6-1.5,1.2-.4.5-.8,1.2-1.1,2.1-.3.9-.4,1.9-.4,3.1s.2,2.5.7,3.5c.4,1,1,1.8,1.8,2.4.8.6,1.7.9,2.7.9s1.2-.1,1.7-.3c.5-.2.9-.5,1.2-.8.3-.3.6-.6.9-.9.2-.2.5-.3.7-.3s.5.1.7.3c.2.2.3.5.3.8s-.1.7-.4,1.1c-.5.7-1.2,1.3-2.1,1.9-.9.5-1.8.8-2.8.8Z"/>
    <path class="st0" d="M166.7,44.7c-.3,0-.6-.1-.8-.4-.2-.3-.3-.6-.3-1v-15c0-.4.1-.8.3-1,.2-.3.5-.4.8-.4s.6.1.8.4c.2.3.3.6.3,1v4.5l-.3-.7c.1-.7.3-1.4.6-2.1.3-.7.7-1.3,1.1-1.8s1-1,1.5-1.3,1.2-.5,1.9-.5.8.1,1.1.4c.3.2.5.6.5,1s-.1.8-.3,1.1c-.2.2-.4.4-.7.4s-.5,0-.7-.2-.5-.2-.8-.2-.9.2-1.4.5c-.5.3-.9.8-1.3,1.3-.4.6-.7,1.2-.9,1.9-.2.7-.3,1.5-.3,2.3v8.4c0,.4-.1.7-.3,1s-.5.4-.8.4Z"/>
    <path class="st0" d="M191.5,24.2l-6.5,19.7c0,.3-.2.5-.4.7s-.4.3-.6.3c-.4,0-.6-.1-.8-.4-.2-.2-.3-.5-.3-.8,0-.2,0-.3,0-.5l7.2-21.7c.1-.3.3-.6.5-.7s.4-.2.7-.2c.2,0,.5,0,.7.2.2.2.3.4.4.7l7.2,21.5c0,.2,0,.4,0,.6,0,.4-.1.7-.3,1-.2.3-.5.4-.8.4s-.5,0-.6-.3c-.2-.2-.3-.4-.4-.7l-6.6-19.7h.6ZM186.4,38.3l.9-2.7h8.3l.4,2.7h-9.6Z"/>
    <path class="st0" d="M213.1,26.9c.3,0,.6.1.8.4s.3.6.3,1v9.4c0,2.3-.5,4.1-1.6,5.4-1,1.3-2.5,1.9-4.4,1.9s-3.3-.6-4.4-1.9c-1-1.3-1.6-3.1-1.6-5.4v-9.4c0-.4.1-.8.3-1,.2-.3.5-.4.8-.4s.6.1.8.4c.2.3.3.6.3,1v9.4c0,1.6.3,2.7,1,3.6.7.8,1.6,1.2,2.7,1.2s2.1-.4,2.8-1.2c.6-.8,1-2,1-3.6v-9.4c0-.4.1-.8.3-1,.2-.3.5-.4.8-.4Z"/>
    <path class="st0" d="M217.5,41.9c-.1-.3-.2-.6-.2-1,0-.3.2-.6.5-.9.2-.2.4-.2.7-.2.3,0,.5.2.7.4.5.8,1.1,1.4,1.8,1.8.7.4,1.5.7,2.4.7.4,0,.9-.1,1.3-.3.5-.2.8-.4,1.1-.8.3-.4.5-.9.5-1.6s-.2-1.2-.5-1.5c-.3-.4-.7-.7-1.2-.9-.5-.2-1.1-.5-1.6-.6-.6-.2-1.2-.4-1.8-.7-.6-.3-1.1-.6-1.6-1-.5-.4-.9-.9-1.1-1.5-.3-.6-.4-1.4-.4-2.3s.2-1.9.7-2.7c.5-.8,1.1-1.3,1.8-1.8s1.6-.6,2.5-.6,1.1,0,1.6.2c.6.2,1.1.4,1.7.8.5.4,1,.8,1.4,1.5.2.2.3.5.3.9,0,.3-.1.7-.4.9-.2.2-.4.3-.7.3-.3,0-.5-.1-.6-.3-.4-.6-.9-1.1-1.5-1.4-.6-.3-1.2-.5-1.9-.5s-.9,0-1.3.3c-.4.2-.8.4-1.1.8-.3.4-.4.9-.4,1.6,0,.6.2,1.1.5,1.5s.7.7,1.3.9c.5.2,1.1.5,1.8.7.6.2,1.2.4,1.7.6s1,.6,1.5.9c.4.4.8.9,1.1,1.5s.4,1.4.4,2.3-.2,2-.7,2.7-1.1,1.4-1.9,1.8-1.6.6-2.5.6-2-.2-3-.7c-1-.5-1.9-1.3-2.6-2.5Z"/>
    <path class="st0" d="M231,27h6.5c.3,0,.5.1.7.4.2.3.3.6.3.9s0,.6-.3.9c-.2.2-.4.4-.7.4h-6.5c-.3,0-.5-.1-.7-.4-.2-.3-.3-.6-.3-.9s.1-.7.3-.9.5-.4.7-.4ZM233.9,22.3c.3,0,.6.1.8.4.2.3.3.6.3,1v16.6c0,.6,0,1,.2,1.2.1.3.3.5.5.6.2.1.4.2.6.2s.3,0,.5-.1.3-.1.5-.1.4.1.5.3c.2.2.2.5.2.8s-.2.8-.6,1.1-.8.4-1.3.4-.6,0-1,0c-.4,0-.8-.2-1.1-.4-.4-.3-.7-.7-.9-1.3-.3-.6-.4-1.4-.4-2.5v-16.8c0-.4.1-.7.3-1s.5-.4.8-.4Z"/>
    <path class="st0" d="M242.8,44.7c-.3,0-.6-.1-.8-.4-.2-.3-.3-.6-.3-1v-15c0-.4.1-.8.3-1,.2-.3.5-.4.8-.4s.6.1.8.4c.2.3.3.6.3,1v4.5l-.3-.7c.1-.7.3-1.4.6-2.1.3-.7.7-1.3,1.1-1.8s1-1,1.5-1.3,1.2-.5,1.9-.5.8.1,1.1.4c.3.2.5.6.5,1s-.1.8-.3,1.1c-.2.2-.4.4-.7.4s-.5,0-.7-.2-.5-.2-.8-.2-.9.2-1.4.5c-.5.3-.9.8-1.3,1.3-.4.6-.7,1.2-.9,1.9-.2.7-.3,1.5-.3,2.3v8.4c0,.4-.1.7-.3,1s-.5.4-.8.4Z"/>
    <path class="st0" d="M264.7,26.7c.3,0,.6.1.8.4.2.3.3.6.3,1v15.2c0,.4-.1.7-.3,1s-.5.4-.8.4-.6-.1-.8-.4c-.2-.3-.3-.6-.3-1v-3.3h.5c0,.5-.1,1-.4,1.6-.3.6-.7,1.1-1.1,1.7s-1,.9-1.7,1.3c-.6.3-1.4.5-2.1.5-1.3,0-2.4-.4-3.4-1.2-1-.8-1.8-1.9-2.4-3.3-.6-1.4-.9-3-.9-4.8s.3-3.4.9-4.8c.6-1.4,1.4-2.5,2.4-3.3s2.1-1.2,3.4-1.2,1.5.2,2.2.5,1.3.8,1.8,1.3c.5.6.9,1.2,1.2,1.8.3.7.4,1.3.4,2l-.7-.2v-3.8c0-.4.1-.7.3-1s.5-.4.8-.4ZM258.9,42.5c.9,0,1.7-.3,2.4-.9.7-.6,1.3-1.4,1.7-2.4.4-1,.6-2.2.6-3.5s-.2-2.4-.6-3.4c-.4-1-1-1.8-1.7-2.4s-1.5-.9-2.4-.9-1.7.3-2.4.9c-.7.6-1.3,1.4-1.7,2.4s-.6,2.2-.6,3.5.2,2.4.6,3.5c.4,1,1,1.8,1.7,2.4.7.6,1.5.9,2.5.9Z"/>
    <path class="st0" d="M272.4,43.3c0,.4-.1.7-.3,1s-.5.4-.8.4-.6-.1-.8-.4-.3-.6-.3-1v-22.7c0-.4.1-.7.3-1s.5-.4.8-.4.6.1.8.4c.2.3.3.6.3,1v22.7Z"/>
    <path class="st0" d="M277.7,24.3c-.5,0-.8-.1-1-.3-.2-.2-.3-.6-.3-1.1v-.5c0-.5.1-.8.4-1.1s.6-.3,1-.3.8.1,1,.3c.2.2.3.6.3,1.1v.5c0,.5-.1.8-.3,1.1-.2.2-.6.3-1,.3ZM278.8,43.3c0,.4-.1.7-.3,1-.2.3-.5.4-.8.4s-.6-.1-.8-.4-.3-.6-.3-1v-15.3c0-.4.1-.7.3-1s.5-.4.8-.4.6.1.8.4c.2.3.3.6.3,1v15.3Z"/>
    <path class="st0" d="M294.7,26.7c.3,0,.6.1.8.4.2.3.3.6.3,1v15.2c0,.4-.1.7-.3,1s-.5.4-.8.4-.6-.1-.8-.4c-.2-.3-.3-.6-.3-1v-3.3h.5c0,.5-.1,1-.4,1.6-.3.6-.7,1.1-1.1,1.7s-1,.9-1.7,1.3c-.6.3-1.4.5-2.1.5-1.3,0-2.4-.4-3.4-1.2-1-.8-1.8-1.9-2.4-3.3-.6-1.4-.9-3-.9-4.8s.3-3.4.9-4.8c.6-1.4,1.4-2.5,2.4-3.3s2.1-1.2,3.4-1.2,1.5.2,2.2.5,1.3.8,1.8,1.3c.5.6.9,1.2,1.2,1.8.3.7.4,1.3.4,2l-.7-.2v-3.8c0-.4.1-.7.3-1s.5-.4.8-.4ZM288.9,42.5c.9,0,1.7-.3,2.4-.9.7-.6,1.3-1.4,1.7-2.4.4-1,.6-2.2.6-3.5s-.2-2.4-.6-3.4c-.4-1-1-1.8-1.7-2.4s-1.5-.9-2.4-.9-1.7.3-2.4.9c-.7.6-1.3,1.4-1.7,2.4s-.6,2.2-.6,3.5.2,2.4.6,3.5c.4,1,1,1.8,1.7,2.4.7.6,1.5.9,2.5.9Z"/>
  </g>
  <g>
    <path class="st1" d="M31.1,55.6c-14.3,0-25.9-11.6-25.9-25.9S16.8,3.9,31.1,3.9s25.9,11.6,25.9,25.9-1.4,9.8-4.2,14.1l-1.8-4.2c1.6-3.2,2.4-6.5,2.4-9.8,0-12.3-10-22.3-22.3-22.3S8.8,17.5,8.8,29.8s10,22.3,22.3,22.3,10.8-2,14.9-5.8l.2-.2-7.9-18.8-5.9,13.9h-3.9,0s-9.2,0-9.2,0v-14.5h12.4l-1.5,3.6h-7.4v7.3h7.2l3.1-7.3h0l2.7-6.5h4.8l8.2,19.4h0s1.5,3.6,1.5,3.6c-2.4,2.7-5.2,4.8-8.4,6.3-3.4,1.6-7.1,2.4-10.8,2.4Z"/>
    <polygon class="st1" points="19.4 21.2 19.4 17.7 38 17.7 39.5 21.2 19.4 21.2"/>
  </g>
</svg>