<?xml version="1.0" encoding="UTF-8"?>
<svg xmlns="http://www.w3.org/2000/svg" xmlns:xlink="http://www.w3.org/1999/xlink" version="1.1" viewBox="0 0 300 60">
  <!-- Generator: Adobe Illustrator 29.5.1, SVG Export Plug-In . SVG Version: 2.1.0 Build 141)  -->
  <defs>
    <style>
      .st0 {
        fill: url(#Degradado_sin_nombre_24);
        mix-blend-mode: multiply;
        opacity: .3;
      }

      .st1 {
        isolation: isolate;
      }

      .st2 {
        fill: #0b5adb;
      }

      .st3 {
        fill: #fff;
        stroke: #fff;
        stroke-miterlimit: 10;
      }
    </style>
    <radialGradient id="Degradado_sin_nombre_24" data-name="Degradado sin nombre 24" cx="34.8" cy="114.7" fx="34.8" fy="114.7" r="18.6" gradientTransform="translate(0 41.6) scale(1 0)" gradientUnits="userSpaceOnUse">
      <stop offset="0" stop-color="#606060"/>
      <stop offset="1" stop-color="#e8ebeb" stop-opacity="0"/>
    </radialGradient>
  </defs>
  <g class="st1">
    <g id="Layer_1">
      <g>
        <path class="st3" d="M67.7,42.1c-2,0-3.6-.4-5-1.2s-2.4-1.8-3.1-3.2c-.7-1.4-1-3-1-4.8s.3-3.4,1-4.8c.7-1.4,1.7-2.5,3.1-3.2s3-1.2,5-1.2,1.9.1,2.8.4c.9.2,1.7.6,2.4,1.1.7.5,1.3,1.1,1.8,1.8.5.7.7,1.6.9,2.5h-2.7c0-.7-.4-1.3-.8-1.9s-1-1-1.8-1.4c-.7-.3-1.6-.5-2.7-.5-1.5,0-2.7.3-3.7,1-.9.7-1.6,1.5-2.1,2.6-.4,1.1-.7,2.3-.7,3.7s.2,2.6.7,3.6c.4,1.1,1.1,1.9,2.1,2.6.9.6,2.2,1,3.7,1s2.4-.2,3.2-.7c.8-.4,1.5-1.1,1.9-1.9.4-.8.6-1.7.7-2.8h-5.5v-2h8v1.4c0,1.6-.3,2.9-.9,4.1-.6,1.2-1.5,2.1-2.8,2.8-1.2.7-2.8,1-4.6,1Z"/>
        <path class="st3" d="M83.4,41.8c-1.2,0-2-.2-2.6-.5-.6-.3-1-.8-1.3-1.4s-.3-1.4-.3-2.3v-13.7h2.4v13.6c0,.8.1,1.4.3,1.8s.8.6,1.6.6h.7v1.8h-.8Z"/>
        <path class="st3" d="M92.2,42.1c-1.3,0-2.5-.3-3.4-.8-.9-.5-1.7-1.3-2.2-2.3-.5-1-.8-2.2-.8-3.6s.3-2.6.8-3.6c.5-1,1.2-1.8,2.2-2.3s2.1-.8,3.4-.8,2.5.3,3.5.8,1.7,1.3,2.2,2.3c.5,1,.8,2.2.8,3.6s-.3,2.6-.8,3.6c-.5,1-1.3,1.8-2.2,2.3-1,.5-2.1.8-3.5.8ZM92.2,40.3c1,0,1.8-.2,2.3-.6s1-1,1.3-1.7c.3-.7.4-1.6.4-2.5s-.1-1.8-.4-2.5-.7-1.3-1.3-1.8c-.6-.4-1.4-.6-2.3-.6s-1.7.2-2.2.6c-.6.4-1,1-1.2,1.8s-.4,1.6-.4,2.6.1,1.8.4,2.5c.2.7.7,1.3,1.2,1.7.6.4,1.3.6,2.2.6Z"/>
        <path class="st3" d="M108.8,42.1c-1,0-1.9-.2-2.7-.5-.7-.3-1.3-.9-1.8-1.6v1.8h-2.4v-17.9h2.5v7c.5-.6,1.1-1.2,1.8-1.6.8-.4,1.6-.7,2.7-.7s2.1.3,2.9.8c.8.5,1.4,1.2,1.9,2.2s.7,2.2.7,3.7-.2,2.7-.7,3.7c-.4,1-1.1,1.7-1.9,2.3s-1.8.8-2.9.8ZM108.3,40.3c1.2,0,2-.4,2.6-1.3.6-.9.8-2.1.8-3.6s-.3-2.8-.8-3.6c-.6-.8-1.4-1.3-2.5-1.3s-1.8.3-2.5.8c-.7.5-1.2,1.1-1.6,1.8v5c.4.7.9,1.2,1.5,1.6.7.4,1.5.6,2.4.6Z"/>
        <path class="st3" d="M120.8,42.1c-.8,0-1.5-.1-2.1-.4-.6-.3-1.1-.7-1.5-1.2s-.6-1.2-.6-2c0-1.2.4-2.1,1.1-2.7s1.8-1,3.2-1.2c1.4-.2,3-.3,4.9-.3v-.9c0-1.1-.3-1.9-.8-2.3s-1.3-.6-2.1-.6-1.7.2-2.3.7-.9,1.1-.9,2.1h-2.4c0-1,.2-1.9.7-2.5.5-.7,1.1-1.1,2-1.4.8-.3,1.8-.4,2.9-.4s1.3,0,2,.2c.6.1,1.2.4,1.7.7s.9.8,1.2,1.4c.3.6.4,1.4.4,2.3v8.7h-2.3v-1.9c-.7.7-1.4,1.2-2.3,1.6-.8.4-1.8.6-2.9.6ZM121.5,40.4c.9,0,1.8-.2,2.5-.6.7-.4,1.4-.9,1.9-1.6v-2.7c-2.4,0-4.1.3-5.2.7-1,.4-1.6,1.1-1.6,2.1s.2,1.1.6,1.5c.4.4,1,.6,1.8.6Z"/>
        <path class="st3" d="M136.1,41.8c-1.2,0-2-.2-2.6-.5-.6-.3-1-.8-1.3-1.4s-.3-1.4-.3-2.3v-13.7h2.4v13.6c0,.8.1,1.4.3,1.8s.8.6,1.6.6h.7v1.8h-.8Z"/>
        <path class="st3" d="M144.4,22.8h1.7v17.7h9.1v1.4h-10.8v-19.1Z"/>
        <path class="st3" d="M166.7,30.7c-.3-.4-.6-.7-1-1-.4-.2-.9-.4-1.5-.5-.6,0-1.1-.1-1.7-.1v-1.2c1.3,0,2.3.1,3.1.3.8.2,1.4.5,1.9,1,.5.5.8,1.1,1,1.9.2.8.3,1.7.3,2.8v7.8s0,0-.3,0c-.2,0-.5,0-.9,0-.4,0-.8,0-1.2,0-.4,0-.8,0-1.3,0-.4,0-.8,0-1.1,0-1,0-1.9,0-2.7-.2-.8-.1-1.5-.4-2.2-.7-.6-.4-1.1-.9-1.4-1.5-.3-.7-.5-1.5-.5-2.5v-2.3c0-.8.1-1.4.4-1.9.2-.5.6-.9,1-1.3.4-.3.9-.5,1.5-.7.5-.1,1.1-.2,1.7-.2s1.3,0,1.9.2c.6.1,1.2.3,1.8.5.6.2,1.1.5,1.5.7,0-.7-.1-1.2-.4-1.6ZM165.4,32.9c-.6-.2-1.2-.4-1.8-.5-.6-.1-1.2-.2-1.9-.2s-.5,0-.9.1c-.3,0-.6.2-.9.4-.3.2-.5.5-.7.9s-.3.9-.3,1.5v2c0,.7,0,1.2.2,1.7s.4.9.8,1.2.9.5,1.5.7c.7.1,1.5.2,2.5.1.4,0,.8,0,1.1,0,.3,0,.6,0,.9,0,.3,0,.5,0,.7,0s.4,0,.5,0v-7c-.5-.3-1.1-.5-1.7-.7Z"/>
        <path class="st3" d="M174.4,28.5c.5-.2,1-.3,1.6-.4.6,0,1.2-.1,1.8-.1s1.2,0,1.8.2c.6.1,1.1.4,1.6.7.5.3.9.7,1.2,1.3.3.5.4,1.2.4,1.9v5.2c0,1-.2,1.8-.5,2.5-.3.7-.8,1.2-1.4,1.5-.6.4-1.3.6-2.2.7-.8.1-1.7.2-2.7.2-.3,0-.6,0-1,0-.4,0-.8,0-1.3,0-.4,0-.8,0-1.2,0s-.7,0-.9,0c-.2,0-.3,0-.3,0v-19.1h1.7v6.2c.5-.2.9-.3,1.4-.5ZM173,40.6c.3,0,.6,0,.9,0,.3,0,.6,0,1,0,.4,0,.8,0,1.3,0,1,0,1.8,0,2.5-.2s1.2-.4,1.5-.7c.4-.3.6-.7.8-1.2.1-.5.2-1,.2-1.7v-4.9c0-.6-.1-1.1-.3-1.5-.2-.4-.5-.7-.9-.9-.3-.2-.7-.3-1.1-.4s-.7-.1-1-.1c-.6,0-1.2,0-1.8.1-.5,0-1.1.2-1.6.4-.5.2-1,.4-1.6.6v10.3Z"/>
        <path class="st3" d="M194.9,40.7c-.9,1-2.3,1.5-4.1,1.5s-2.3-.2-3.1-.7-1.5-1.1-1.9-1.9c-.4-.8-.6-1.7-.6-2.7v-3.6c0-1.2.2-2.1.7-2.9.4-.8,1.1-1.4,1.9-1.8.8-.4,1.8-.6,3-.6,1.8,0,3.1.5,4.1,1.4.9.9,1.4,2.3,1.4,3.9v3.6c0,1.6-.4,2.9-1.3,3.9ZM194.2,31c-.3-.6-.7-1-1.2-1.3-.5-.3-1.3-.4-2.1-.4s-1.6.1-2.2.4c-.6.3-1,.7-1.3,1.3-.3.6-.5,1.3-.5,2.2v3.8c0,.7.2,1.4.5,1.9.3.6.8,1,1.4,1.3s1.3.5,2.1.5,1.5-.1,2.1-.5c.6-.3,1-.7,1.2-1.3s.4-1.2.4-1.9v-3.8c0-.9-.1-1.6-.4-2.2Z"/>
        <path class="st3" d="M206.9,41.4c-.5.2-.9.4-1.5.5-.5.1-1,.2-1.5.2s-1.3,0-1.8-.2c-.5-.1-1-.3-1.5-.5s-.8-.5-1.1-.9c-.3-.4-.5-.8-.7-1.3s-.2-1-.2-1.7v-9.4h1.7v9c0,.8.1,1.5.4,2,.3.5.7.9,1.2,1.1.5.2,1.2.3,1.9.3s1.1,0,1.6-.3c.5-.2.9-.4,1.3-.8.4-.3.7-.7.9-1.1.2-.4.3-.9.3-1.4v-8.9h1.7v13.7h-1.7v-1.3c-.3.3-.7.6-1.2.9Z"/>
        <path class="st3" d="M220.3,29.3c-.5,0-.9,0-1.3,0-.4,0-.9,0-1.3.1-.5,0-.9.2-1.4.3s-.9.3-1.3.5c-.4.2-.7.3-1,.5v11.1h-1.7v-13.7h1.7v.9c.7-.3,1.5-.6,2.3-.8.8-.2,1.7-.4,2.8-.4.4,0,.8,0,1.3,0v1.3Z"/>
        <path class="st3" d="M240.8,24.2h-8.3v6.4h5.7l-.7,1.5h-5v9.7h-1.7v-19.1h10v1.4Z"/>
        <path class="st3" d="M249.8,40.7c-.9,1-2.3,1.5-4.1,1.5s-2.3-.2-3.1-.7-1.5-1.1-1.9-1.9c-.4-.8-.6-1.7-.6-2.7v-3.6c0-1.2.2-2.1.7-2.9.4-.8,1.1-1.4,1.9-1.8.8-.4,1.8-.6,3-.6,1.8,0,3.1.5,4.1,1.4.9.9,1.4,2.3,1.4,3.9v3.6c0,1.6-.4,2.9-1.3,3.9ZM249.1,31c-.3-.6-.7-1-1.2-1.3-.5-.3-1.3-.4-2.1-.4s-1.6.1-2.2.4c-.6.3-1,.7-1.3,1.3-.3.6-.5,1.3-.5,2.2v3.8c0,.7.2,1.4.5,1.9.3.6.8,1,1.4,1.3s1.3.5,2.1.5,1.5-.1,2.1-.5c.6-.3,1-.7,1.2-1.3s.4-1.2.4-1.9v-3.8c0-.9-.1-1.6-.4-2.2Z"/>
        <path class="st3" d="M261.6,29.3c-.5,0-.9,0-1.3,0-.4,0-.9,0-1.3.1-.5,0-.9.2-1.4.3s-.9.3-1.3.5c-.4.2-.7.3-1,.5v11.1h-1.7v-13.7h1.7v.9c.7-.3,1.5-.6,2.3-.8.8-.2,1.7-.4,2.8-.4.4,0,.8,0,1.3,0v1.3Z"/>
        <path class="st3" d="M270.5,29.5c-.6-.1-1.2-.2-1.8-.2-.9,0-1.7.2-2.3.5-.6.3-1,.8-1.3,1.4s-.4,1.3-.4,2.1v3.4c0,.7,0,1.3.2,1.8.1.5.4.9.7,1.2.3.3.8.5,1.3.7.5.2,1.1.2,1.9.3.4,0,.9,0,1.3,0,.4,0,.8,0,1.2-.1s.6,0,.8-.1c.2,0,.3,0,.3,0l.3,1.4c-.6.1-1.3.3-1.9.3-.7,0-1.3.1-2,0-1.1,0-2.1-.2-3-.6-.9-.4-1.5-.9-2-1.6-.5-.7-.7-1.7-.7-2.8v-4c0-1,.2-1.9.6-2.7.4-.8,1-1.4,1.9-1.8.8-.4,1.9-.7,3.1-.7s1.4,0,2.1.2c.7.2,1.3.4,2,.6l-.4,1.2c-.5-.2-1.1-.4-1.7-.5Z"/>
        <path class="st3" d="M276.3,39.4c.2.3.4.6.7.8.3.2.7.4,1.1.5.4,0,.9.1,1.3.1.7,0,1.5-.1,2.2-.3.7-.2,1.4-.5,2.2-.8l.7,1.2c-.7.4-1.5.7-2.4.9s-1.7.3-2.5.3-1.5,0-2.1-.2c-.6-.1-1.2-.3-1.6-.7-.5-.3-.8-.7-1.1-1.2-.3-.5-.4-1.1-.4-1.9v-5.6c0-1,.2-1.9.7-2.6.5-.7,1.1-1.2,2-1.6s1.8-.5,2.8-.5,2,.2,2.8.5c.8.3,1.4.9,1.8,1.5.4.7.6,1.5.6,2.5v3.5l-9.1.4v1.7c0,.5,0,.9.3,1.2ZM283.1,30.7c-.3-.5-.7-.8-1.3-1.1-.5-.3-1.2-.4-1.9-.4s-1.5.1-2,.4c-.6.3-1,.6-1.3,1.2-.3.5-.5,1.1-.5,1.9v2.4l7.5-.3v-2.4c0-.6-.2-1.2-.5-1.6Z"/>
      </g>
      <ellipse class="st0" cx="34.8" cy="51.9" rx="26.3" ry="2.3"/>
      <path class="st2" d="M32.4,33h3.1v-3.1h-1.6v-3.1h7.8v7.8l-6.2,6.2v-6.2l-3.1,3.1h-3.1c-.9,0-1.6-.3-2.2-.9-.6-.6-.9-1.3-.9-2.2v-12.4c0-.9.3-1.6.9-2.2.6-.6,1.3-.9,2.2-.9h12.8c.7,0,1.3-.3,1.8-.7l5.7-5.7c.7-.7.2-1.8-.8-1.8h-24.9c-1.5,0-2.8.5-3.9,1.6-1.1,1.1-1.6,2.4-1.6,3.9v22c0,1.5.5,2.8,1.6,3.9,1.1,1.1,2.4,1.6,3.9,1.6h8.5c1.4,0,2.5,1.2,2.5,2.5v3l10.3-10.3c.5-.5.7-1.1.7-1.8v-10.2c0-1.4-1.1-2.5-2.5-2.5h-11v8.5Z"/>
    </g>
  </g>
</svg>