<?xml version="1.0" encoding="UTF-8"?>
<svg id="Layer_1" xmlns="http://www.w3.org/2000/svg" version="1.1" viewBox="0 0 6023 1017">
  <!-- Generator: Adobe Illustrator 29.5.1, SVG Export Plug-In . SVG Version: 2.1.0 Build 141)  -->
  <defs>
    <style>
      .st0 {
        stroke: #000;
      }

      .st0, .st1 {
        stroke-miterlimit: 10;
        stroke-width: 50px;
      }

      .st1 {
        fill: #d5ac63;
        stroke: #d5ac63;
      }
    </style>
  </defs>
  <g>
    <path d="M1211.4,749.5v-455.2h78.5v253.9l113-182.5h79.3l-121.1,189.6,127.6,194.2h-80.8l-118-186.8v186.8h-78.5Z"/>
    <path d="M1553.9,749.5v-383.9h78.9v42.7c6.6-14.8,18.2-26.4,34.7-34.8s37.5-12.5,63-12.5.8,2.3,1,6.8c0,4.5.2,9.7.2,15.5v22.3c-12.3,0-24.5,1-36.8,2.9-12.3,2-23.8,5.3-34.5,10s-19.9,11-27.6,19.1v311.9h-78.9,0Z"/>
    <path d="M1917.5,754.1c-27.6,0-49.7-3.2-66.5-9.6-16.7-6.4-29.4-15.5-38.1-27.3s-14.5-25.9-17.4-42.4-4.4-34.7-4.4-54.6v-135.6c0-18.1,1.9-34.7,5.7-49.8s10.5-28.1,19.9-39.2c9.4-11,22.6-19.5,39.5-25.6s38.3-9.1,64.4-9.1,47.5,3.1,63.6,9.2,28.3,14.8,36.6,26,13.9,24.5,16.7,39.9,4.2,32.4,4.2,50.8v72.4h-171.6v76.5c0,24.2,2.5,42.7,7.5,55.4s18.6,19.1,40.8,19.1,25-3,31.2-9.1c6.3-6.1,10.1-14.6,11.5-25.6s2.1-24,2.1-39v-31h77v16.4c0,20-1.2,38-3.6,54.3-2.4,16.2-7.6,30.1-15.5,41.7-7.9,11.6-20.1,20.5-36.6,26.7s-38.8,9.3-66.9,9.3v.2h0ZM1869.6,523.8h93.5v-48.9c0-15.4-.8-28.3-2.3-38.8s-5.2-18.4-11.1-23.8c-5.9-5.4-15.6-8.1-29.1-8.1s-26.2,3.1-33.5,9.2-12,14.6-14.2,25.5c-2.2,10.8-3.3,23.4-3.3,37.7v47.1h0Z"/>
    <path d="M2244.4,754.6c-40.9,0-71.9-8.6-93.1-25.7-21.2-17.1-31.8-45.6-31.8-85.3v-28.9h76.2v28.7c0,21.5,3.5,38,10.5,49.4s18.6,17.1,34.7,17.1,27.9-3.5,35.4-10.5,11.3-19.5,11.3-37.6-2-18-6.1-27-10.3-17.8-18.8-26.6c-8.4-8.8-19.3-17.4-32.6-25.7l-40.6-25.8c-24.3-15.5-42.8-32-55.6-49.5s-19.2-36-19.2-55.7c0-31,11-53.9,32.9-68.5,22-14.6,52.2-21.9,90.8-21.9s47.5,3.8,65.1,11.3,30.9,20,39.8,37.4c8.9,17.4,13.4,41.1,13.4,71.1v18.4h-74.7v-26.6c0-21.5-3.1-38-9.4-49.4-6.3-11.4-17.4-17.1-33.5-17.1s-27.3,3-35.1,9.1-12.1,17.1-12.8,33.1c-.3,8.2,1.3,16.5,4.8,24.8,3.4,8.4,9.1,16.6,17,24.8s18.1,16.2,30.7,24.1l41.4,25.8c26.8,16.5,47.1,34.3,60.7,53.4,13.7,19,20.5,39.1,20.5,60.3s-9.9,51.8-29.7,68.3-50.6,24.8-92.5,24.8h.3Z"/>
    <path d="M2552.4,754.6c-40.9,0-71.9-8.6-93.1-25.7-21.2-17.1-31.8-45.6-31.8-85.3v-28.9h76.2v28.7c0,21.5,3.5,38,10.5,49.4s18.6,17.1,34.7,17.1,27.9-3.5,35.4-10.5,11.3-19.5,11.3-37.6-2-18-6.1-27-10.3-17.8-18.8-26.6c-8.4-8.8-19.3-17.4-32.6-25.7l-40.6-25.8c-24.3-15.5-42.8-32-55.6-49.5s-19.2-36-19.2-55.7c0-31,11-53.9,32.9-68.5,22-14.6,52.2-21.9,90.8-21.9s47.5,3.8,65.1,11.3,30.9,20,39.8,37.4c8.9,17.4,13.4,41.1,13.4,71.1v18.4h-74.7v-26.6c0-21.5-3.1-38-9.4-49.4-6.3-11.4-17.4-17.1-33.5-17.1s-27.3,3-35.1,9.1-12.1,17.1-12.8,33.1c-.3,8.2,1.3,16.5,4.8,24.8,3.4,8.4,9.1,16.6,17,24.8s18.1,16.2,30.7,24.1l41.4,25.8c26.8,16.5,47.1,34.3,60.7,53.4,13.7,19,20.5,39.1,20.5,60.3s-9.9,51.8-29.7,68.3-50.6,24.8-92.5,24.8h.3Z"/>
    <path d="M5720.9,753.2c-40.9,0-71.9-8.6-93.1-25.7-21.2-17.1-31.8-45.6-31.8-85.3v-28.9h76.2v28.7c0,21.5,3.5,38,10.5,49.4s18.6,17.1,34.7,17.1,27.9-3.5,35.4-10.5,11.3-19.5,11.3-37.6-2-18-6.1-27-10.3-17.8-18.8-26.6c-8.4-8.8-19.3-17.4-32.6-25.7l-40.6-25.8c-24.3-15.5-42.8-32-55.6-49.5s-19.2-36-19.2-55.7c0-31,11-53.9,32.9-68.5,22-14.6,52.2-21.9,90.8-21.9s47.5,3.8,65.1,11.3,30.9,20,39.8,37.4,13.4,41.1,13.4,71.1v18.4h-74.7v-26.6c0-21.5-3.1-38-9.4-49.4s-17.4-17.1-33.5-17.1-27.3,3-35.1,9.1-12.1,17.1-12.8,33.1c-.3,8.2,1.3,16.5,4.8,24.8,3.4,8.4,9.1,16.6,17,24.8s18.1,16.2,30.7,24.1l41.4,25.8c26.8,16.5,47.1,34.3,60.7,53.4,13.7,19,20.5,39.1,20.5,60.3s-9.9,51.8-29.7,68.3-50.6,24.8-92.5,24.8h.3Z"/>
    <path d="M2871.2,754.1c-27.6,0-49.7-3.2-66.5-9.6-16.7-6.4-29.4-15.5-38.1-27.3-8.7-11.8-14.5-25.9-17.4-42.4s-4.4-34.7-4.4-54.6v-135.6c0-18.1,1.9-34.7,5.7-49.8s10.5-28.1,19.9-39.2c9.4-11,22.6-19.5,39.5-25.6s38.3-9.1,64.4-9.1,47.5,3.1,63.6,9.2,28.3,14.8,36.6,26,13.9,24.5,16.7,39.9,4.2,32.4,4.2,50.8v72.4h-171.6v76.5c0,24.2,2.5,42.7,7.5,55.4s18.6,19.1,40.8,19.1,25-3,31.2-9.1c6.3-6.1,10.1-14.6,11.5-25.6s2.1-24,2.1-39v-31h77v16.4c0,20-1.2,38-3.6,54.3-2.4,16.2-7.6,30.1-15.5,41.7-7.9,11.6-20.1,20.5-36.6,26.7s-38.8,9.3-66.9,9.3v.2h0ZM2823.3,523.8h93.5v-48.9c0-15.4-.8-28.3-2.3-38.8s-5.2-18.4-11.1-23.8c-5.9-5.4-15.6-8.1-29.1-8.1s-26.2,3.1-33.5,9.2-12,14.6-14.2,25.5c-2.2,10.8-3.3,23.4-3.3,37.7v47.1h0Z"/>
    <path d="M3091.1,749.5v-455.2h78.5v455.2h-78.5Z"/>
    <path d="M3471.9,749.5v-450.4h79.3v214.7l119.9-214.7h79.7l-125.7,222.4,134.5,228h-82.8l-124.9-215.5v215.5h-80.1.1Z"/>
    <path d="M3822.1,330.3v-48.1h78.9v48.1h-78.9ZM3822.1,749.5v-383.9h78.9v383.9h-78.9Z"/>
    <path d="M4114.5,751.8c-24.5,0-43-2-55.6-5.9-12.5-3.9-20.9-10.2-25.3-18.9-4.3-8.7-6.5-20.2-6.5-34.5v-284.8h-52.5v-38.9h52.5v-69.6h78.5v69.6h62.1v38.9h-62.1v280.2c0,6.5,1.3,11.3,3.8,14.5,2.6,3.2,8.3,5.2,17.2,6.3,8.9,1,22.9,1.5,41.8,1.5v41.7h-54,.1Z"/>
    <path d="M4362.4,754.1c-27.8,0-50.3-3.2-67.2-9.5-17-6.3-29.9-15.4-38.7-27.3-8.8-11.9-14.8-26-17.8-42.5-3.1-16.5-4.6-34.8-4.6-54.9v-128.5c0-25.6,3.2-48.2,9.6-67.8,6.4-19.6,18.9-35,37.5-46.1s46.4-16.6,83.1-16.6,46.2,2.8,61.9,8.4,27.7,13.7,36,24.3c8.3,10.6,13.9,23.2,16.9,37.9,2.9,14.7,4.4,31,4.4,48.9v26.6h-77.4v-33.8c0-14.7-.7-27-2.1-37s-5-17.5-10.9-22.6-15.7-7.7-29.5-7.7-25.4,2.8-32.6,8.3-11.9,13.5-14.4,23.8c-2.4,10.3-3.6,22.6-3.6,36.7v163.3c0,15.9,1,29,3.1,39.5,2,10.5,6.5,18.3,13.4,23.5s17.5,7.8,31.8,7.8,23.8-2.8,30.1-8.3c6.3-5.5,10.3-13.6,12.1-24.1,1.8-10.5,2.7-23,2.7-37.5v-37.1h77.4v24.8c0,18.9-1.4,36.2-4.2,51.7-2.8,15.5-8.4,28.9-16.7,40.2-8.3,11.3-20.5,20-36.6,26.1s-37.3,9.2-63.6,9.2v.3h0Z"/>
    <path d="M4578.4,749.5v-455.2h78.5v112.1c5.1-11.9,15.9-22.5,32.4-31.7s36.2-13.8,59.2-13.8,51.5,6.8,67.8,20.5,24.5,34.4,24.5,62.2v306.1h-78.5v-301.7c0-15.7-4.3-26.6-12.8-32.6-8.6-6.1-20-9.1-34.3-9.1s-20.2,1.7-29.1,5-16,8.5-21.3,15.6c-5.2,7.1-7.9,16.2-7.9,27.5v295.3h-78.5v-.2h0Z"/>
    <path d="M5068.1,754.1c-27.6,0-49.7-3.2-66.5-9.6-16.7-6.4-29.4-15.5-38.1-27.3s-14.5-25.9-17.4-42.4-4.4-34.7-4.4-54.6v-135.6c0-18.1,1.9-34.7,5.7-49.8,3.8-15.1,10.5-28.1,19.9-39.2,9.4-11,22.6-19.5,39.5-25.6s38.3-9.1,64.4-9.1,47.5,3.1,63.6,9.2,28.3,14.8,36.6,26c8.3,11.2,13.9,24.5,16.7,39.9,2.8,15.4,4.2,32.4,4.2,50.8v72.4h-171.6v76.5c0,24.2,2.5,42.7,7.5,55.4s18.6,19.1,40.8,19.1,25-3,31.2-9.1c6.3-6.1,10.1-14.6,11.5-25.6s2.1-24,2.1-39v-31h77v16.4c0,20-1.2,38-3.6,54.3-2.4,16.2-7.6,30.1-15.5,41.7-7.9,11.6-20.1,20.5-36.6,26.7s-38.8,9.3-66.9,9.3v.2h-.1ZM5020.2,523.8h93.5v-48.9c0-15.4-.8-28.3-2.3-38.8s-5.2-18.4-11.1-23.8-15.6-8.1-29.1-8.1-26.2,3.1-33.5,9.2-12,14.6-14.2,25.5c-2.2,10.8-3.3,23.4-3.3,37.7v47.1h0Z"/>
    <path d="M5286.5,749.5v-383.9h78.5v40.7c5.1-11.9,16-22.5,32.8-31.7,16.7-9.2,36.7-13.8,60-13.8s51.3,6.8,67.4,20.5,24.1,34.4,24.1,62.2v306.1h-78.5v-305.8c0-13.6-4.6-23.5-13.8-29.7-9.2-6.1-20.9-9.2-35.2-9.2s-20.1,1.5-28.7,4.6c-8.7,3.1-15.5,7.8-20.5,14.3s-7.5,14.8-7.5,25.1v300.7h-78.6,0Z"/>
  </g>
  <path class="st0" d="M582.2,703.2c.9,46.1-.8,92.3,0,138.4,5.8-5.3,24,3.6,25.1-4.2l-.9-178.5L249.4,270l-19.3,17.5,261.4,285-259.6,259.6c3.6,3,14.2,17.5,18.3,15.4l259-255.7,72.6,79.9.4,31.5Z"/>
  <path class="st1" d="M621.1,451V177.7h-25.1v328.5l81.2-67,275,306.8c1.4,1.6,2.3,1.8,4.2.8,3.6-1.9,12.1-12.4,16.7-15.2l-276.4-308.6,274.8-233.6-15.1-19.3-335.2,280.9h0Z"/>
</svg>