<?xml version="1.0" encoding="UTF-8"?>
<svg id="Layer_1" xmlns="http://www.w3.org/2000/svg" version="1.1" viewBox="0 0 300 60">
  <!-- Generator: Adobe Illustrator 29.5.1, SVG Export Plug-In . SVG Version: 2.1.0 Build 141)  -->
  <defs>
    <style>
      .st0 {
        fill: #4566b0;
      }

      .st0, .st1, .st2, .st3, .st4 {
        fill-rule: evenodd;
      }

      .st5 {
        fill: #fff;
      }

      .st6 {
        fill: #2b3277;
      }

      .st1 {
        fill: #4bbcec;
      }

      .st2 {
        fill: #4154a4;
      }

      .st3 {
        fill: #4b88c7;
      }

      .st4 {
        fill: #48c7f4;
      }
    </style>
  </defs>
  <g>
    <path class="st5" d="M69.6,32.4h8.5v3h-12.7V12.4h4.1v19.9Z"/>
    <path class="st5" d="M99.9,27.7h-15.3c.1,1.5.7,2.6,1.8,3.5,1.1.9,2.4,1.3,3.9,1.3,2.2,0,3.8-.8,4.7-2.5h4.5c-.6,1.7-1.7,3-3.3,4.1-1.6,1.1-3.6,1.6-5.9,1.6s-3.6-.4-5.1-1.2c-1.5-.8-2.7-1.9-3.6-3.3-.9-1.4-1.3-3.1-1.3-4.9s.4-3.5,1.3-4.9c.8-1.4,2-2.5,3.5-3.3,1.5-.8,3.3-1.2,5.2-1.2s3.6.4,5.1,1.1c1.5.7,2.6,1.8,3.5,3.2.8,1.4,1.2,2.9,1.2,4.7s0,1.3-.1,1.9ZM95.7,24.7c0-1.4-.6-2.5-1.6-3.3-1.1-.8-2.4-1.3-4-1.3s-2.7.4-3.7,1.2-1.6,1.9-1.8,3.4h11.1Z"/>
    <path class="st5" d="M103.9,21.4c.8-1.4,2-2.5,3.4-3.3,1.4-.8,3-1.2,4.8-1.2s2.6.3,3.9.8,2.3,1.2,3,2.1v-8.8h4.2v24.5h-4.2v-2.7c-.7.9-1.6,1.6-2.8,2.2s-2.6.9-4.1.9-3.3-.4-4.8-1.2c-1.4-.8-2.6-1.9-3.4-3.4-.8-1.4-1.3-3.1-1.3-4.9s.4-3.4,1.3-4.9ZM118.2,23c-.6-.9-1.3-1.6-2.2-2.1-.9-.5-1.9-.7-3-.7s-2.1.2-3,.7c-.9.5-1.7,1.2-2.2,2.1s-.9,2-.9,3.3.3,2.4.9,3.3,1.3,1.7,2.3,2.2,1.9.7,3,.7,2.1-.2,3-.7c.9-.5,1.7-1.2,2.2-2.1.6-.9.9-2,.9-3.3s-.3-2.3-.9-3.3Z"/>
    <path class="st5" d="M142.3,12.4v14.6c0,1.7.5,3.1,1.5,3.9,1,.9,2.4,1.3,4.2,1.3s3.2-.4,4.2-1.3c1-.9,1.5-2.2,1.5-3.9v-14.6h4.1v14.6c0,1.9-.4,3.5-1.3,4.8-.9,1.3-2.1,2.3-3.6,2.9s-3.2,1-5,1-3.5-.3-5-1c-1.5-.6-2.7-1.6-3.5-2.9-.9-1.3-1.3-2.9-1.3-4.8v-14.6h4.1Z"/>
    <path class="st5" d="M170.3,17.8c1.2-.6,2.6-.9,4.1-.9s3.3.4,4.8,1.2c1.4.8,2.6,1.9,3.4,3.3.8,1.4,1.2,3,1.2,4.9s-.4,3.5-1.2,4.9c-.8,1.4-2,2.6-3.4,3.4-1.4.8-3,1.2-4.8,1.2s-2.9-.3-4.1-.8c-1.2-.6-2.2-1.3-2.9-2.1v11.3h-4.1v-26.9h4.1v2.7c.7-.8,1.7-1.5,2.9-2.1ZM178.7,23c-.6-.9-1.3-1.6-2.3-2.1-.9-.5-1.9-.7-3-.7s-2,.2-3,.7c-.9.5-1.7,1.2-2.3,2.1-.6.9-.9,2-.9,3.3s.3,2.4.9,3.3c.6.9,1.3,1.6,2.3,2.1.9.5,1.9.7,3,.7s2.1-.2,3-.7c.9-.5,1.7-1.2,2.3-2.2.6-.9.9-2,.9-3.3s-.3-2.3-.9-3.3Z"/>
    <path class="st5" d="M200.1,17.8c1.2.6,2.1,1.3,2.8,2.1v-2.6h4.2v18.5c0,1.7-.4,3.2-1.2,4.5-.8,1.3-1.9,2.3-3.4,3.1-1.5.7-3.2,1.1-5.3,1.1s-5-.6-6.8-1.7c-1.8-1.2-2.8-2.7-3.1-4.7h4.1c.3.9,1,1.7,2,2.3,1,.6,2.3.9,3.7.9s3-.5,4.1-1.4c1-.9,1.5-2.3,1.5-4v-3c-.7.9-1.7,1.6-2.9,2.2s-2.6.9-4.1.9-3.3-.4-4.8-1.2c-1.4-.8-2.6-1.9-3.4-3.4-.8-1.4-1.3-3.1-1.3-4.9s.4-3.4,1.3-4.9c.8-1.4,2-2.5,3.4-3.3,1.4-.8,3-1.2,4.8-1.2s2.9.3,4.1.8ZM202.1,23c-.6-.9-1.3-1.6-2.2-2.1-.9-.5-1.9-.7-3-.7s-2.1.2-3,.7c-.9.5-1.7,1.2-2.2,2.1-.6.9-.9,2-.9,3.3s.3,2.4.9,3.3c.6.9,1.3,1.7,2.3,2.2s1.9.7,3,.7,2.1-.2,3-.7c.9-.5,1.7-1.2,2.2-2.1.6-.9.9-2,.9-3.3s-.3-2.3-.9-3.3Z"/>
    <path class="st5" d="M219.2,17.7c1-.5,2.2-.8,3.6-.8v3.9h-1.1c-1.6,0-2.9.4-3.7,1.1-.8.7-1.3,2.1-1.3,3.9v9.6h-4.1v-18.2h4.1v2.6c.6-.9,1.4-1.6,2.4-2.2Z"/>
    <path class="st5" d="M226.4,21.4c.8-1.4,2-2.5,3.4-3.3,1.4-.8,3-1.2,4.8-1.2s3,.3,4.1.8,2.1,1.3,2.8,2.1v-2.6h4.2v18.2h-4.2v-2.7c-.7.9-1.7,1.6-2.9,2.1s-2.6.9-4.1.9-3.3-.4-4.7-1.2c-1.4-.8-2.6-1.9-3.4-3.4-.8-1.4-1.3-3.1-1.3-4.9s.4-3.4,1.3-4.9ZM240.7,23c-.6-.9-1.3-1.6-2.2-2.1-.9-.5-1.9-.7-3-.7s-2.1.2-3,.7c-.9.5-1.7,1.2-2.2,2.1-.6.9-.9,2-.9,3.3s.3,2.4.9,3.3c.6.9,1.3,1.7,2.3,2.2s1.9.7,3,.7,2.1-.2,3-.7c.9-.5,1.7-1.2,2.2-2.1.6-.9.9-2,.9-3.3s-.3-2.3-.9-3.3Z"/>
    <path class="st5" d="M251.1,21.4c.8-1.4,2-2.5,3.4-3.3,1.4-.8,3-1.2,4.8-1.2s2.6.3,3.9.8c1.3.5,2.3,1.2,3,2.1v-8.8h4.2v24.5h-4.2v-2.7c-.7.9-1.6,1.6-2.8,2.2s-2.6.9-4.1.9-3.3-.4-4.8-1.2c-1.4-.8-2.6-1.9-3.4-3.4-.8-1.4-1.3-3.1-1.3-4.9s.4-3.4,1.3-4.9ZM265.4,23c-.6-.9-1.3-1.6-2.2-2.1-.9-.5-1.9-.7-3-.7s-2.1.2-3,.7c-.9.5-1.7,1.2-2.2,2.1-.6.9-.9,2-.9,3.3s.3,2.4.9,3.3c.6.9,1.3,1.7,2.3,2.2s1.9.7,3,.7,2.1-.2,3-.7c.9-.5,1.7-1.2,2.2-2.1.6-.9.9-2,.9-3.3s-.3-2.3-.9-3.3Z"/>
    <path class="st5" d="M294.1,27.7h-15.3c.1,1.5.7,2.6,1.8,3.5,1.1.9,2.4,1.3,3.9,1.3,2.2,0,3.8-.8,4.7-2.5h4.5c-.6,1.7-1.7,3-3.3,4.1-1.6,1.1-3.6,1.6-5.9,1.6s-3.6-.4-5.1-1.2c-1.5-.8-2.7-1.9-3.6-3.3-.9-1.4-1.3-3.1-1.3-4.9s.4-3.5,1.3-4.9,2-2.5,3.5-3.3c1.5-.8,3.3-1.2,5.2-1.2s3.6.4,5.1,1.1c1.5.7,2.6,1.8,3.5,3.2.8,1.4,1.2,2.9,1.2,4.7s0,1.3-.1,1.9ZM289.9,24.7c0-1.4-.6-2.5-1.6-3.3-1.1-.8-2.4-1.3-4-1.3s-2.7.4-3.7,1.2c-1,.8-1.6,1.9-1.8,3.4h11.1Z"/>
  </g>
  <g>
    <path class="st5" d="M216.6,49.2h-4l-.9,2.4h-.8l3.3-8.7h.7l3.3,8.7h-.8l-.9-2.4ZM212.9,48.6h3.5l-1.7-4.7-1.7,4.7Z"/>
    <path class="st5" d="M227.9,43v5.9c0,.6-.1,1.1-.4,1.5-.3.4-.6.8-1.1,1-.5.2-1,.3-1.6.3-.9,0-1.7-.3-2.2-.8s-.8-1.2-.9-2.1v-6h.7v5.9c0,.7.2,1.3.6,1.7.4.4,1,.6,1.7.6s1.3-.2,1.7-.6c.4-.4.6-1,.6-1.7v-5.9h.7Z"/>
    <path class="st5" d="M237.3,49.5c0-.5-.2-.9-.5-1.1-.3-.3-1-.5-1.9-.8-.9-.3-1.6-.5-2-.8-.6-.4-.9-1-.9-1.7s.3-1.2.8-1.6c.5-.4,1.2-.6,2.1-.6s1.1.1,1.6.3c.5.2.8.5,1.1.9.3.4.4.8.4,1.3h-.7c0-.6-.2-1.1-.6-1.4s-1-.5-1.6-.5-1.2.1-1.6.4c-.4.3-.6.7-.6,1.2s.2.8.5,1.1.9.5,1.7.7,1.4.4,1.8.7c.4.2.7.5.9.8.2.3.3.7.3,1.1,0,.7-.3,1.2-.8,1.7-.5.4-1.3.6-2.2.6s-1.2-.1-1.7-.3-.9-.5-1.2-.9-.4-.8-.4-1.4h.7c0,.6.2,1.1.7,1.5.5.4,1.1.5,1.8.5s1.2-.1,1.6-.4c.4-.3.6-.7.6-1.2Z"/>
    <path class="st5" d="M248,43.6h-3v8.1h-.7v-8.1h-3v-.6h6.7v.6Z"/>
    <path class="st5" d="M255.1,48h-2.5v3.6h-.7v-8.7h2.8c.9,0,1.7.2,2.2.7.5.5.8,1.1.8,1.9s-.2,1-.5,1.5-.8.7-1.3.9l2.2,3.7h0c0,0-.8,0-.8,0l-2.1-3.6ZM252.6,47.4h2.3c.6,0,1.1-.2,1.5-.5.4-.4.6-.8.6-1.4s-.2-1.1-.6-1.4-.9-.5-1.6-.5h-2.1v3.8Z"/>
    <path class="st5" d="M266.8,49.2h-4l-.9,2.4h-.8l3.3-8.7h.7l3.3,8.7h-.8l-.9-2.4ZM263.1,48.6h3.5l-1.7-4.7-1.7,4.7Z"/>
    <path class="st5" d="M272.9,51.1h4.3v.6h-5v-8.7h.7v8.1Z"/>
    <path class="st5" d="M282,51.7h-.7v-8.7h.7v8.7Z"/>
    <path class="st5" d="M291.5,49.2h-4l-.9,2.4h-.8l3.3-8.7h.7l3.3,8.7h-.8l-.9-2.4ZM287.8,48.6h3.5l-1.7-4.7-1.7,4.7Z"/>
  </g>
  <path class="st6" d="M22.7,53.5c-.6,0-1.1-.6-1-1.2,0-.6.6-1.1,1.2-1,1.5.2,3.1.2,4.7.2s3.2,0,4.7-.2c.6,0,1.2.4,1.2,1,0,.6-.4,1.2-1,1.2-1.7.2-3.3.3-4.9.3s-3.3,0-4.9-.3M25,54.7c.3,1.1,1.4,1.9,2.6,1.9s2.3-.8,2.6-1.9c-.8,0-1.7,0-2.6,0s-1.8,0-2.6,0ZM20.8,50.1c-.6,0-1-.7-1-1.3,0-.6.7-1,1.3-1,2.2.3,4.3.5,6.5.5s4.4-.2,6.5-.5c.6,0,1.2.3,1.3,1,0,.6-.3,1.2-1,1.3-2.3.3-4.6.5-6.8.5s-4.6-.2-6.8-.5Z"/>
  <path class="st0" d="M32,46.1c1.5-4.4,9.3-23.4,11.7-29.5-.4-.7-.8-1.5-1.2-2.1l-22.9,31.1c4.6.8,7.7,1,12.4.5"/>
  <path class="st3" d="M19.8,42.2l22.6-30.8c-3-3.8-7.5-6-12.1-6.4l-11.4,34.1c.4,1,.7,2,.9,3.2"/>
  <path class="st1" d="M16.6,40.2L27.5,7.7c-.7,0-1.4,0-2,0l-15.9,20.7c1.4,4.6,4.9,7.7,7,11.8"/>
  <path class="st4" d="M10.8,24.1L25.4,5.1c-9.6,1.4-16.3,10-14.6,19"/>
  <path class="st2" d="M45,35.3c1.8,0,1.8,2.7,0,2.7s-1.8-2.7,0-2.7"/>
  <path class="st2" d="M41.5,40.6c-.8,0-.8,1.2,0,1.2s.8-1.2,0-1.2"/>
  <path class="st1" d="M6.3,26.2c-2.4,0-2.4-3.6,0-3.6s2.4,3.6,0,3.6"/>
  <path class="st3" d="M46.6,12.9c2.3,0,2.3-3.5,0-3.5s-2.3,3.5,0,3.5"/>
  <path class="st0" d="M16,42.5c-1.4,0-1.4,2.2,0,2.2s1.4-2.2,0-2.2"/>
  <path class="st1" d="M28,5c1.4,0,1.4-2.1,0-2.1s-1.4,2.1,0,2.1"/>
  <path class="st2" d="M45.9,15.6c-2.8,6.9-9.6,23.6-11.1,27.7.9-.1,1.8-.2,2.6-.4.7-9.2,9.4-12.6,9.4-22.1s-.3-3.6-.9-5.3"/>
  <path class="st4" d="M11.6,3.3c-.9,0-1.6.7-1.6,1.6s.7,1.6,1.6,1.6,1.6-.7,1.6-1.6-.7-1.6-1.6-1.6M17.6,3c-.3,0-.5.2-.5.5s.2.5.5.5.5-.2.5-.5-.2-.5-.5-.5Z"/>
</svg>