<?xml version="1.0" encoding="utf-8"?>
<!-- Generator: Adobe Illustrator 27.8.1, SVG Export Plug-In . SVG Version: 6.00 Build 0)  -->
<svg version="1.1" xmlns="http://www.w3.org/2000/svg" xmlns:xlink="http://www.w3.org/1999/xlink" x="0px" y="0px"
	 viewBox="0 0 1076.6 283.5" style="enable-background:new 0 0 1076.6 283.5;" xml:space="preserve">
<style type="text/css">
	.st0{fill:#F8BC2D;}
	.st1{fill:#18457B;}
	.st2{fill:#1F3F6A;}
	.st3{fill:#FAAF40;}
	.st4{display:none;}
</style>
<g id="Layer_1">
	<g>
		<path class="st0" d="M156.3,33.2c2.8-1,5.8-0.9,8.7-1.1c6.4-0.2,12.7-1.1,19.1-0.8c2.3,16.1,4.8,32.1,7.2,48.2
			c1.7-6,1.9-12.3,2.8-18.5c1-7.4,2-14.7,2.7-22.1c0.1-2.3,1-4.6,1.9-6.7c8.6,2.4,17.6,3.7,25.8,7.1c-2.9,13.9-5.7,27.9-8.1,41.9
			c3.4-5.9,5.9-12.4,9.7-18c0.5,12.1,0.3,24.2,0.1,36.3c-19.4-2.5-40.1-2.3-58,6.5c-14.2,7.6-25.7,20.2-31.8,35.1
			c-3.9,9.1-5.4,19-5.8,28.8c-0.3,6.9,1,13.8,1.5,20.7c-16.8-0.1-33.7,0.3-50.5-0.2c8.5-2.1,16.6-5.2,24.8-8.1
			c-8.1-0.3-16.1,1-24.2,1.2c-13.8,0.4-27.5,2.1-41.2,2c0-8.2-0.3-16.4-0.3-24.6c-0.3-1.9,2.1-2.2,3.4-2.2
			c21.1-0.2,42.3-0.1,63.4-0.7c-21.2-5.7-42.9-9.1-64.1-14.5c-0.1-5.3,2.6-10.2,3.7-15.4c1.2-3.2,1.2-7.2,3.8-9.6
			c5.9,0.7,11.4,2.7,17.2,3.9c15.2,3.4,30.2,7.7,45.5,10.3c-18.5-10.1-38-18.4-56.5-28.6C61.2,96.2,66.3,89,71.8,82
			c17.9,9.7,35.2,20.6,53.3,30.1c-9.2-9.9-19.6-18.6-29.1-28.2c-4.1-4.3-8.9-7.8-12.7-12.3c-0.1-0.4-0.1-1.3-0.2-1.7
			c5.1-4.9,11.1-8.9,16.4-13.5c1.5-1.1,3.9-3.5,5.6-1.5c12.5,13.1,24.4,26.7,37.1,39.6c-8.2-16.4-17.7-32.2-26.1-48.4
			c8.3-3.5,16.5-7.2,25.2-9.7c9.2,15.3,16,32,25.5,47.3c-3.2-15.8-6.7-31.4-10.1-47.2C156.4,35.4,156.3,34.3,156.3,33.2L156.3,33.2z
			"/>
		<path class="st1" d="M230.2,56c18.8,0.1,37.6,0.1,56.3,0c0,10.8,0,21.5,0,32.3c-18.8,0-37.5,0-56.3,0
			C230.2,77.5,230.2,66.8,230.2,56L230.2,56z"/>
		<path class="st1" d="M293.8,56.3c18.8-0.1,37.6-0.1,56.5,0c0,10.8,0,21.6,0,32.4c-18.8,0.1-37.6,0.1-56.5,0
			C293.8,77.9,293.8,67.1,293.8,56.3L293.8,56.3z"/>
		<path class="st1" d="M357.2,56.3c18.8,0,37.5,0,56.3,0c0,10.8,0,21.7,0,32.5c-18.8,0-37.5,0-56.3,0
			C357.2,77.9,357.2,67.1,357.2,56.3L357.2,56.3z"/>
		<path class="st0" d="M179.7,120.5c13.9-7.2,30.9-8.2,45.6-2.8c0,23.1-0.1,46.2,0,69.3c-0.4,1.1,0.7,4-1.2,3.6
			c-24.2,0.1-48.3,0-72.5,0c-5.1-14.8-3.9-31.7,3.4-45.6C160.3,134.5,169.1,125.8,179.7,120.5L179.7,120.5z"/>
		<path class="st1" d="M230.8,126.7c18.7,0,37.3,0,56,0c0.6,10.9,0.5,21.7,0.1,32.6c-18.7,0-37.4,0-56.1,0
			C230.8,148.4,230.7,137.6,230.8,126.7L230.8,126.7z"/>
		<path class="st1" d="M293.7,127.1c13.4-0.9,26.8-0.2,40.3-0.4c5.4,0.1,10.9-0.3,16.3,0.4c-0.1,10.7,0,21.4,0,32.2
			c-18.8,0-37.6,0-56.4,0C293.7,148.5,293.8,137.8,293.7,127.1L293.7,127.1z"/>
		<path class="st1" d="M357.2,126.7c18.8,0,37.5,0,56.2,0c0.1,10.9,0,21.7,0,32.6c-18.8,0-37.5,0-56.3,0
			C357.2,148.4,357.2,137.6,357.2,126.7L357.2,126.7z"/>
		<path class="st1" d="M40.8,197.3c18.8-0.1,37.6-0.1,56.4,0c0,10.7,0,21.5,0,32.2c-18.8,0.1-37.6,0.1-56.4,0
			C40.8,218.8,40.8,208,40.8,197.3L40.8,197.3z"/>
		<path class="st1" d="M104.2,197.2c18.7,0,37.4,0,56.2,0c0,10.8,0,21.5,0,32.3c-18.7,0-37.4,0-56.2,0
			C104.2,218.8,104.2,208,104.2,197.2L104.2,197.2z"/>
		<path class="st1" d="M167.4,197.2c18.8,0,37.5,0,56.3,0c0,10.8,0,21.5,0,32.3c-18.8,0-37.5,0-56.3,0
			C167.4,218.8,167.4,208,167.4,197.2L167.4,197.2z"/>
		<path class="st1" d="M230.8,197.3c18.8,0,37.6-0.1,56.3,0c0,10.8,0,21.5,0,32.2c-18.8,0.1-37.6,0-56.4,0
			C230.8,218.8,230.8,208,230.8,197.3L230.8,197.3z"/>
		<path class="st1" d="M293.8,197.3c18.8-0.1,37.6-0.1,56.5,0c0,10.8,0,21.5,0,32.2c-18.8,0.1-37.6,0.1-56.5,0
			C293.8,218.8,293.8,208,293.8,197.3L293.8,197.3z"/>
		<path class="st1" d="M357.2,197.2c18.8,0,37.5,0,56.3,0c0,10.8,0,21.6,0,32.4c-18.8,0-37.5,0-56.3,0
			C357.2,218.8,357.2,208,357.2,197.2L357.2,197.2z"/>
	</g>
</g>
<g id="word">
	<g>
		<path class="st2" d="M724.2,258.2h-3.3V256c0-0.7-0.2-1.2-0.5-1.5s-0.9-0.5-1.7-0.5h-6.5v4.1H709v-13.8h10.2
			c0.9,0,1.6,0.1,2.3,0.2s1.1,0.4,1.6,0.8s0.7,0.8,0.9,1.4c0.2,0.6,0.3,1.2,0.3,2v1c0,0.8-0.1,1.4-0.2,1.9s-0.4,0.8-0.9,1.1
			c0.4,0.1,0.7,0.4,0.9,0.8c0.2,0.4,0.3,1,0.3,1.8V258.2z M720.8,249.1c0-0.5-0.1-0.9-0.4-1.1c-0.2-0.2-0.7-0.3-1.3-0.3h-7v3.1h7.1
			c0.6,0,1-0.1,1.2-0.3c0.2-0.2,0.3-0.6,0.3-1.1V249.1z"/>
		<path class="st2" d="M740.7,244.4v2.7h-10.7v2.5h10.4v2.8h-10.4v3h10.7v2.8h-14v-13.8H740.7z"/>
		<path class="st2" d="M747.9,244.4l8,9.5v-9.5h3.3v13.8h-3.9l-9-10.3v10.3h-3.3v-13.8H747.9z"/>
		<path class="st2" d="M776,244.4v2.7h-10.7v2.5h10.4v2.8h-10.4v3H776v2.8h-14v-13.8H776z"/>
		<path class="st2" d="M782.8,258.2l-5.3-13.8h3.4l4.3,11.1h0.2l3.9-11.1h3.4l3.9,11h0.3l4.2-11h3.4l-5.3,13.8h-4.8l-3.3-9.4
			l-3.3,9.4H782.8z"/>
		<path class="st3" d="M822.2,258.2c-1.3,0-2.4-0.1-3.2-0.2c-0.8-0.2-1.5-0.5-2-0.9c-0.5-0.4-0.8-1-1-1.8c-0.2-0.8-0.3-1.7-0.3-2.9
			v-1.7c0-1.3,0.1-2.3,0.3-3.2c0.2-0.8,0.5-1.5,1-1.9c0.5-0.5,1.1-0.8,2-1c0.9-0.2,2-0.3,3.3-0.3h2.9c1.4,0,2.6,0.1,3.4,0.3
			c0.9,0.2,1.6,0.5,2.1,1c0.5,0.5,0.9,1.1,1,1.9c0.2,0.8,0.3,1.8,0.3,3.1v1.7c0,1.3-0.1,2.3-0.3,3.1c-0.2,0.8-0.5,1.4-1.1,1.8
			c-0.5,0.4-1.2,0.7-2.1,0.8c-0.9,0.1-2.1,0.2-3.5,0.2H822.2z M822.6,247.4c-0.8,0-1.4,0-1.9,0.1c-0.5,0.1-0.8,0.2-1.1,0.5
			s-0.4,0.6-0.5,1c-0.1,0.4-0.1,1-0.1,1.7v1.4c0,0.6,0,1.1,0.1,1.5s0.2,0.7,0.5,0.9c0.2,0.2,0.6,0.4,1,0.4c0.4,0.1,1,0.1,1.8,0.1
			h2.6c0.8,0,1.4,0,1.9-0.1c0.5-0.1,0.9-0.2,1.1-0.4s0.4-0.5,0.5-0.9s0.1-0.9,0.1-1.6v-1.4c0-0.7,0-1.2-0.1-1.7s-0.3-0.8-0.5-1
			s-0.6-0.4-1.1-0.5c-0.5-0.1-1.2-0.1-2-0.1H822.6z"/>
		<path class="st3" d="M837.1,253c0,0.5,0.1,0.9,0.2,1.2c0.1,0.3,0.3,0.6,0.5,0.8c0.2,0.2,0.5,0.3,0.9,0.4c0.4,0.1,0.8,0.1,1.4,0.1
			h3.5c0.5,0,1,0,1.3-0.1c0.4-0.1,0.7-0.2,0.9-0.4c0.2-0.2,0.4-0.4,0.5-0.8c0.1-0.3,0.2-0.7,0.2-1.2v-8.6h3.3v8.9
			c0,0.9-0.1,1.7-0.3,2.3s-0.5,1.1-0.9,1.5s-1,0.7-1.7,0.8s-1.6,0.3-2.7,0.3h-4.8c-1,0-1.9-0.1-2.6-0.3c-0.7-0.2-1.3-0.5-1.7-0.9
			c-0.4-0.4-0.8-0.9-1-1.5c-0.2-0.6-0.3-1.4-0.3-2.2v-8.9h3.3V253z"/>
		<path class="st3" d="M867,258.2h-3.3V256c0-0.7-0.2-1.2-0.5-1.5s-0.9-0.5-1.7-0.5h-6.5v4.1h-3.3v-13.8h10.2c0.9,0,1.6,0.1,2.3,0.2
			s1.1,0.4,1.6,0.8s0.7,0.8,0.9,1.4c0.2,0.6,0.3,1.2,0.3,2v1c0,0.8-0.1,1.4-0.2,1.9s-0.4,0.8-0.9,1.1c0.4,0.1,0.7,0.4,0.9,0.8
			c0.2,0.4,0.3,1,0.3,1.8V258.2z M863.6,249.1c0-0.5-0.1-0.9-0.4-1.1c-0.2-0.2-0.7-0.3-1.3-0.3h-7v3.1h7.1c0.6,0,1-0.1,1.2-0.3
			c0.2-0.2,0.3-0.6,0.3-1.1V249.1z"/>
		<path class="st2" d="M893.7,244.4v2.7H883v2.5h10.4v2.8H883v5.8h-3.3v-13.8H893.7z"/>
		<path class="st2" d="M898.8,253c0,0.5,0.1,0.9,0.2,1.2c0.1,0.3,0.3,0.6,0.5,0.8c0.2,0.2,0.5,0.3,0.9,0.4c0.4,0.1,0.8,0.1,1.4,0.1
			h3.5c0.5,0,1,0,1.3-0.1c0.4-0.1,0.7-0.2,0.9-0.4c0.2-0.2,0.4-0.4,0.5-0.8c0.1-0.3,0.2-0.7,0.2-1.2v-8.6h3.3v8.9
			c0,0.9-0.1,1.7-0.3,2.3s-0.5,1.1-0.9,1.5s-1,0.7-1.7,0.8s-1.6,0.3-2.7,0.3H901c-1,0-1.9-0.1-2.6-0.3c-0.7-0.2-1.3-0.5-1.7-0.9
			c-0.4-0.4-0.8-0.9-1-1.5c-0.2-0.6-0.3-1.4-0.3-2.2v-8.9h3.3V253z"/>
		<path class="st2" d="M927.5,247.2h-5.8v11h-3.3v-11h-5.8v-2.8h14.8V247.2z"/>
		<path class="st2" d="M932.2,253c0,0.5,0.1,0.9,0.2,1.2c0.1,0.3,0.3,0.6,0.5,0.8c0.2,0.2,0.5,0.3,0.9,0.4c0.4,0.1,0.8,0.1,1.4,0.1
			h3.5c0.5,0,1,0,1.3-0.1c0.4-0.1,0.7-0.2,0.9-0.4c0.2-0.2,0.4-0.4,0.5-0.8c0.1-0.3,0.2-0.7,0.2-1.2v-8.6h3.3v8.9
			c0,0.9-0.1,1.7-0.3,2.3s-0.5,1.1-0.9,1.5s-1,0.7-1.7,0.8s-1.6,0.3-2.7,0.3h-4.8c-1,0-1.9-0.1-2.6-0.3c-0.7-0.2-1.3-0.5-1.7-0.9
			c-0.4-0.4-0.8-0.9-1-1.5c-0.2-0.6-0.3-1.4-0.3-2.2v-8.9h3.3V253z"/>
		<path class="st2" d="M962.1,258.2h-3.3V256c0-0.7-0.2-1.2-0.5-1.5s-0.9-0.5-1.7-0.5h-6.5v4.1h-3.3v-13.8H957
			c0.9,0,1.6,0.1,2.3,0.2s1.1,0.4,1.6,0.8s0.7,0.8,0.9,1.4c0.2,0.6,0.3,1.2,0.3,2v1c0,0.8-0.1,1.4-0.2,1.9s-0.4,0.8-0.9,1.1
			c0.4,0.1,0.7,0.4,0.9,0.8c0.2,0.4,0.3,1,0.3,1.8V258.2z M958.7,249.1c0-0.5-0.1-0.9-0.4-1.1c-0.2-0.2-0.7-0.3-1.3-0.3h-7v3.1h7.1
			c0.6,0,1-0.1,1.2-0.3c0.2-0.2,0.3-0.6,0.3-1.1V249.1z"/>
		<path class="st2" d="M978.5,244.4v2.7h-10.7v2.5h10.4v2.8h-10.4v3h10.7v2.8h-14v-13.8H978.5z"/>
	</g>
	<g>
		<path class="st1" d="M519.4,57.7c10.2,0,17.7,1.7,22.6,5.2c4.9,3.5,7.3,8.8,7.3,16h-20.8c0-1.1-0.1-2.1-0.4-2.9
			c-0.3-0.8-0.8-1.4-1.5-1.9c-0.7-0.5-1.7-0.9-3-1.1s-2.9-0.3-4.9-0.3h-32.5c-2.7,0-5,0.4-6.8,1.3c-1.8,0.9-2.7,2.8-2.7,5.7
			c0,1.5,0.2,2.7,0.7,3.5c0.5,0.8,1.1,1.4,1.9,1.8c0.8,0.4,1.8,0.6,3,0.8c1.2,0.1,2.4,0.2,3.8,0.3l35.8,1.3c4.6,0.1,8.6,0.5,12.1,1
			c3.5,0.5,6.3,1.6,8.6,3.1c2.3,1.5,4,3.8,5.2,6.6c1.2,2.9,1.7,6.8,1.7,11.8c0,4-0.5,7.5-1.4,10.3c-0.9,2.8-2.5,5.2-4.6,7.1
			c-2.1,1.9-4.9,3.2-8.4,4.1c-3.5,0.9-7.8,1.3-12.8,1.3h-40.1c-5.1,0-9.4-0.4-12.9-1.3c-3.5-0.9-6.3-2.2-8.4-3.9
			c-2.1-1.8-3.7-4-4.5-6.6c-0.9-2.7-1.3-5.8-1.3-9.4h19.8c0,1.9,0.9,3.4,2.7,4.5c1.8,1.2,4,1.7,6.8,1.7h32.4c4.3,0,7.5-0.5,9.5-1.5
			c2.1-1,3.1-3,3.1-6c0-1.4-0.2-2.5-0.6-3.5c-0.4-1-1.1-1.8-2-2.5c-1-0.7-2.3-1.2-4.1-1.6c-1.7-0.4-4-0.6-6.8-0.8l-31-1.2
			c-5.5-0.2-10.2-0.6-13.9-1.1c-3.8-0.5-6.9-1.5-9.3-2.9c-2.4-1.4-4.1-3.5-5.2-6.1c-1-2.7-1.6-6.4-1.6-11.1c0-4,0.5-7.3,1.6-10.1
			c1.1-2.8,2.8-5,5.1-6.7c2.3-1.7,5.3-3,9-3.7c3.7-0.8,8.1-1.1,13.3-1.1H519.4z"/>
		<path class="st1" d="M600.4,79.1c6.1,0,11.1,0.4,15.3,1.3c4.1,0.9,7.5,2.3,10,4.3c2.6,2,4.4,4.6,5.5,7.8c1.1,3.2,1.6,7.1,1.6,11.7
			v4.4c0,4.5-0.5,8.2-1.5,11.3c-1,3.1-2.5,5.5-4.5,7.4c-2,1.9-4.6,3.3-7.7,4.2c-3.1,0.9-6.9,1.3-11.4,1.3h-23.2
			c-4,0-7.6-0.4-10.8-1.2c-3.1-0.8-5.8-2.2-7.9-4.1c-2.1-1.9-3.7-4.4-4.8-7.5c-1.1-3.1-1.6-6.9-1.6-11.3v-4.4
			c0-4.5,0.5-8.3,1.5-11.4c1-3.2,2.7-5.8,5.1-7.8c2.4-2,5.6-3.5,9.6-4.4c4-0.9,9-1.4,15-1.4H600.4z M615.6,104.5
			c0-2-0.3-3.8-0.8-5.3c-0.5-1.5-1.4-2.8-2.6-3.7c-1.2-1-3-1.7-5.1-2.2c-2.2-0.5-4.9-0.7-8.2-0.7h-5.8c-3.3,0-6,0.2-8.2,0.7
			c-2.2,0.5-3.9,1.2-5.1,2.2c-1.2,1-2.1,2.2-2.6,3.7c-0.5,1.5-0.8,3.3-0.8,5.3v2.2c0,2.2,0.3,4.1,0.8,5.7c0.5,1.5,1.4,2.8,2.7,3.8
			c1.2,1,2.9,1.7,4.9,2.2c2.1,0.5,4.6,0.7,7.5,0.7h7.2c2.9,0,5.5-0.2,7.5-0.7c2.1-0.5,3.7-1.2,4.9-2.2c1.2-1,2.1-2.2,2.7-3.8
			c0.5-1.5,0.8-3.4,0.8-5.7V104.5z"/>
		<path class="st1" d="M663.5,132.5h-19.3V57.7h19.3V132.5z"/>
		<path class="st1" d="M713.5,98.4c4.2,0,7.5,0.1,10.1,0.4c2.5,0.3,4.5,0.6,6,1.1c1.5,0.5,2.5,1,3.2,1.7c0.7,0.7,1.2,1.4,1.7,2.2
			v-4.1c0-1.8-0.2-3.3-0.7-4.5c-0.5-1.2-1.2-2.2-2.3-2.9c-1-0.7-2.5-1.2-4.3-1.5c-1.8-0.3-4-0.4-6.6-0.4h-12.2
			c-2.5,0-4.5,0.1-6.1,0.3c-1.6,0.2-2.9,0.5-3.8,0.9c-0.9,0.4-1.6,0.8-1.9,1.4c-0.3,0.6-0.5,1.2-0.5,1.8h-18.4c0-5.2,1.9-9,5.7-11.6
			c3.8-2.6,10.1-3.8,19-3.8h21.2c5.2,0,9.5,0.5,13,1.5c3.5,1,6.3,2.4,8.4,4.2c2.1,1.8,3.6,3.9,4.5,6.4c0.9,2.5,1.3,5.2,1.3,8.1v33.1
			h-16.2v-6c-0.5,0.9-1.1,1.7-1.7,2.4c-0.6,0.7-1.6,1.3-3,1.9c-1.4,0.5-3.3,1-5.7,1.3s-5.7,0.5-9.8,0.5h-12.9
			c-8.4,0-14.5-1.2-18.4-3.5c-3.9-2.3-5.8-6.3-5.8-11.8v-3c0-2.7,0.4-5,1.1-7c0.7-2,2-3.6,3.9-5c1.9-1.3,4.3-2.3,7.5-3
			c3.1-0.6,7.1-1,11.9-1H713.5z M698.4,119.7c1.6,0.6,3.8,0.9,6.7,0.9h18.6c2.9,0,5.3-0.3,7-0.9c1.7-0.6,2.6-2,2.6-4.2
			c0-2.2-0.8-3.6-2.5-4.2c-1.7-0.6-4-1-7-1h-18.6c-2.7,0-4.9,0.3-6.6,0.9c-1.7,0.6-2.5,2-2.5,4.3C696,117.7,696.8,119,698.4,119.7z"
			/>
		<path class="st1" d="M813.4,97.9c-0.4-1.1-1-2.1-2-3c-0.9-0.9-2.2-1.7-3.8-2.3c-1.6-0.6-3.6-0.9-6-0.9h-5c-4.7,0-8.2,1.2-10.7,3.6
			c-2.4,2.4-3.7,5.4-3.7,9.1v28h-19.7V79.3h19.7v7.9c0.5-1.1,1.2-2.1,2-3c0.8-0.9,1.9-1.8,3.1-2.5c1.3-0.7,2.8-1.3,4.6-1.7
			c1.8-0.4,3.9-0.6,6.4-0.6h7.8c5.3,0,9.7,0.6,13.2,1.7c3.5,1.1,6.3,2.6,8.3,4.6c2.1,1.9,3.5,4.2,4.3,6.8c0.8,2.6,1.2,5.5,1.2,8.6
			H814C814,100,813.8,99,813.4,97.9z"/>
		<path class="st1" d="M475.7,153.9v28.7h49.8v-28.7h19.3v74.8h-19.3v-31.2h-49.8v31.2h-19.4v-74.8H475.7z"/>
		<path class="st1" d="M593.5,194.6c4.2,0,7.5,0.1,10.1,0.4c2.5,0.3,4.5,0.6,6,1.1c1.5,0.5,2.5,1,3.2,1.7c0.7,0.7,1.2,1.4,1.7,2.2
			v-4.1c0-1.8-0.2-3.3-0.7-4.5c-0.5-1.2-1.2-2.2-2.3-2.9c-1-0.7-2.5-1.2-4.3-1.5c-1.8-0.3-4-0.4-6.6-0.4h-12.2
			c-2.5,0-4.5,0.1-6.1,0.3c-1.6,0.2-2.9,0.5-3.8,0.9c-0.9,0.4-1.6,0.8-1.9,1.4c-0.3,0.6-0.5,1.2-0.5,1.8h-18.4c0-5.2,1.9-9,5.7-11.6
			c3.8-2.6,10.1-3.8,19-3.8h21.2c5.2,0,9.5,0.5,13,1.5c3.5,1,6.3,2.4,8.4,4.2c2.1,1.8,3.6,3.9,4.5,6.4c0.9,2.5,1.3,5.2,1.3,8.1v33.1
			h-16.2v-6c-0.5,0.9-1.1,1.7-1.7,2.4c-0.6,0.7-1.6,1.3-3,1.9c-1.4,0.5-3.3,1-5.7,1.3s-5.7,0.5-9.8,0.5h-12.9
			c-8.4,0-14.5-1.2-18.4-3.5c-3.9-2.3-5.8-6.3-5.8-11.8v-3c0-2.7,0.4-5,1.1-7c0.7-2,2-3.6,3.9-5c1.9-1.3,4.3-2.3,7.5-3
			c3.1-0.6,7.1-1,11.9-1H593.5z M578.4,215.9c1.6,0.6,3.8,0.9,6.7,0.9h18.6c2.9,0,5.3-0.3,7-0.9c1.7-0.6,2.6-2,2.6-4.2
			c0-2.2-0.8-3.6-2.5-4.2c-1.7-0.6-4-1-7-1h-18.6c-2.7,0-4.9,0.3-6.6,0.9c-1.7,0.6-2.5,2-2.5,4.3C576,213.9,576.8,215.2,578.4,215.9
			z"/>
		<path class="st1" d="M693.4,194.1c-0.4-1.1-1-2.1-2-3c-0.9-0.9-2.2-1.7-3.8-2.3c-1.6-0.6-3.6-0.9-6-0.9h-5
			c-4.7,0-8.2,1.2-10.7,3.6c-2.4,2.4-3.7,5.4-3.7,9.1v28h-19.7v-53.3h19.7v7.9c0.5-1.1,1.2-2.1,2-3c0.8-0.9,1.9-1.8,3.1-2.5
			c1.3-0.7,2.8-1.3,4.6-1.7c1.8-0.4,3.9-0.6,6.4-0.6h7.8c5.3,0,9.7,0.6,13.2,1.7c3.5,1.1,6.3,2.6,8.3,4.6c2.1,1.9,3.5,4.2,4.3,6.8
			c0.8,2.6,1.2,5.5,1.2,8.6H694C694,196.2,693.8,195.2,693.4,194.1z"/>
		<path class="st1" d="M742.1,228.7h-19.3v-74.8h19.3v29.4c0.5-1,1.1-2,1.9-3c0.8-1,2-1.8,3.6-2.6c1.6-0.8,3.6-1.4,6.1-1.8
			c2.4-0.5,5.5-0.7,9.3-0.7h8.2c10.4,0,18,2,22.9,6c4.9,4,7.3,9.9,7.3,17.8v6.1c0,3.7-0.5,7.1-1.6,10s-2.7,5.4-5.1,7.4
			c-2.3,2-5.3,3.5-9,4.6c-3.7,1-8.2,1.6-13.6,1.6h-8.2c-3.9,0-7.1-0.2-9.6-0.5c-2.5-0.4-4.6-0.9-6.2-1.5c-1.6-0.6-2.9-1.4-3.8-2.2
			c-0.9-0.8-1.7-1.7-2.2-2.5V228.7z M743.5,208.1c0.5,1.5,1.4,2.8,2.7,3.9c1.2,1,2.9,1.8,4.9,2.4c2.1,0.5,4.6,0.8,7.5,0.8h7.5
			c5.5,0,9.5-0.8,12-2.5c2.5-1.7,3.7-4.8,3.7-9.3v-2.2c0-4.7-1.2-8-3.7-9.7c-2.5-1.7-6.5-2.6-12-2.6h-6.5c-3.3,0-6,0.3-8.2,0.8
			c-2.2,0.5-3.9,1.3-5.2,2.3c-1.3,1-2.2,2.2-2.7,3.7c-0.5,1.5-0.8,3.1-0.8,5v2.2C742.7,204.8,743,206.5,743.5,208.1z"/>
		<path class="st1" d="M853.4,175.3c6.1,0,11.1,0.4,15.3,1.3c4.1,0.9,7.5,2.3,10,4.3c2.6,2,4.4,4.6,5.5,7.8
			c1.1,3.2,1.6,7.1,1.6,11.7v4.4c0,4.5-0.5,8.2-1.5,11.3c-1,3.1-2.5,5.5-4.5,7.4c-2,1.9-4.6,3.3-7.7,4.2c-3.1,0.9-6.9,1.3-11.4,1.3
			h-23.2c-4,0-7.6-0.4-10.8-1.2c-3.1-0.8-5.8-2.2-7.9-4.1c-2.1-1.9-3.7-4.4-4.8-7.5c-1.1-3.1-1.6-6.9-1.6-11.3v-4.4
			c0-4.5,0.5-8.3,1.5-11.4c1-3.2,2.7-5.8,5.1-7.8c2.4-2,5.6-3.5,9.6-4.4c4-0.9,9-1.4,15-1.4H853.4z M868.7,200.7
			c0-2-0.3-3.8-0.8-5.3c-0.5-1.5-1.4-2.8-2.6-3.7c-1.2-1-3-1.7-5.1-2.2c-2.2-0.5-4.9-0.7-8.2-0.7h-5.8c-3.3,0-6,0.2-8.2,0.7
			c-2.2,0.5-3.9,1.2-5.1,2.2c-1.2,1-2.1,2.2-2.6,3.7c-0.5,1.5-0.8,3.3-0.8,5.3v2.2c0,2.2,0.3,4.1,0.8,5.7c0.5,1.5,1.4,2.8,2.7,3.8
			c1.2,1,2.9,1.7,4.9,2.2c2.1,0.5,4.6,0.7,7.5,0.7h7.2c2.9,0,5.5-0.2,7.5-0.7c2.1-0.5,3.7-1.2,4.9-2.2c1.2-1,2.1-2.2,2.7-3.8
			c0.5-1.5,0.8-3.4,0.8-5.7V200.7z"/>
		<path class="st1" d="M912.1,227.6c-3.5-0.9-6.5-2.3-9-4.2c-2.4-1.9-4.3-4.4-5.6-7.5c-1.3-3.1-1.9-6.7-1.9-11.1v-29.3H915v26.2
			c0,2.7,0.3,5,0.9,6.9c0.6,1.9,1.6,3.4,2.9,4.5c1.3,1.1,3,1.9,5.1,2.4c2.1,0.5,4.7,0.8,7.7,0.8h7.6c5.4,0,9.6-1.2,12.4-3.7
			c2.8-2.5,4.3-6.1,4.3-10.8v-26.2h19.6v53.3h-19.3v-6.7c-0.6,0.8-1.4,1.6-2.2,2.4c-0.9,0.8-1.9,1.5-3.3,2.2
			c-1.3,0.6-2.9,1.2-4.8,1.6s-4.1,0.6-6.6,0.6h-15C919.7,228.9,915.6,228.4,912.1,227.6z"/>
		<path class="st1" d="M1037.8,194.1c-0.4-1.1-1-2.1-2-3c-0.9-0.9-2.2-1.7-3.8-2.3c-1.6-0.6-3.6-0.9-6-0.9h-5
			c-4.7,0-8.2,1.2-10.7,3.6c-2.4,2.4-3.7,5.4-3.7,9.1v28H987v-53.3h19.7v7.9c0.5-1.1,1.2-2.1,2-3c0.8-0.9,1.9-1.8,3.1-2.5
			c1.3-0.7,2.8-1.3,4.6-1.7c1.8-0.4,3.9-0.6,6.4-0.6h7.8c5.3,0,9.7,0.6,13.2,1.7c3.5,1.1,6.3,2.6,8.3,4.6c2.1,1.9,3.5,4.2,4.3,6.8
			c0.8,2.6,1.2,5.5,1.2,8.6h-19.3C1038.4,196.2,1038.2,195.2,1037.8,194.1z"/>
	</g>
</g>
<g id="Layer_2" class="st4">
</g>
</svg>
