<?xml version="1.0" encoding="UTF-8"?>
<svg xmlns="http://www.w3.org/2000/svg" xmlns:xlink="http://www.w3.org/1999/xlink" version="1.1" viewBox="0 0 300 60">
  <!-- Generator: Adobe Illustrator 29.5.1, SVG Export Plug-In . SVG Version: 2.1.0 Build 141)  -->
  <defs>
    <style>
      .st0 {
        mask: url(#mask);
      }

      .st1 {
        filter: url(#luminosity-noclip);
      }

      .st2 {
        fill: url(#linear-gradient2);
      }

      .st3 {
        fill: url(#linear-gradient1);
      }

      .st4 {
        fill: url(#linear-gradient3);
      }

      .st5 {
        fill: url(#linear-gradient);
      }

      .st6 {
        isolation: isolate;
      }

      .st7 {
        mask: url(#mask-1);
      }

      .st8 {
        fill: url(#New_Gradient_Swatch_2);
        opacity: .5;
      }

      .st8, .st9, .st10 {
        mix-blend-mode: multiply;
      }

      .st11 {
        fill: #fff;
      }

      .st9 {
        fill: url(#New_Gradient_Swatch_5);
      }

      .st10 {
        fill: #231f20;
        opacity: .2;
      }
    </style>
    <linearGradient id="linear-gradient" x1="25.5" y1="43.2" x2="37" y2="43.2" gradientUnits="userSpaceOnUse">
      <stop offset="0" stop-color="#046938"/>
      <stop offset="1" stop-color="#38b34a"/>
    </linearGradient>
    <linearGradient id="linear-gradient1" x1="12.9" y1="23" x2="49.4" y2="23" gradientUnits="userSpaceOnUse">
      <stop offset="0" stop-color="#2a3b8f"/>
      <stop offset="1" stop-color="#28a8e0"/>
    </linearGradient>
    <linearGradient id="linear-gradient2" x1="6.5" y1="25" x2="54.1" y2="25" xlink:href="#linear-gradient"/>
    <filter id="luminosity-noclip" x="39.2" y="13.3" width="14.9" height="23.7" color-interpolation-filters="sRGB" filterUnits="userSpaceOnUse">
      <feFlood flood-color="#fff" result="bg"/>
      <feBlend in="SourceGraphic" in2="bg"/>
    </filter>
    <filter id="luminosity-noclip1" x="39.2" y="-8222" width="14.9" height="32766" color-interpolation-filters="sRGB" filterUnits="userSpaceOnUse">
      <feFlood flood-color="#fff" result="bg"/>
      <feBlend in="SourceGraphic" in2="bg"/>
    </filter>
    <mask id="mask-1" x="39.2" y="-8222" width="14.9" height="32766" maskUnits="userSpaceOnUse"/>
    <linearGradient id="New_Gradient_Swatch_5" data-name="New Gradient Swatch 5" x1="54.7" y1="13.1" x2="44.4" y2="33.9" gradientUnits="userSpaceOnUse">
      <stop offset="0" stop-color="#000"/>
      <stop offset="1" stop-color="#fff"/>
    </linearGradient>
    <mask id="mask" x="39.2" y="13.3" width="14.9" height="23.7" maskUnits="userSpaceOnUse">
      <g class="st1">
        <g class="st7">
          <path class="st9" d="M39.2,37c5.1-2.3,9.1-5.6,11.4-9.2,4.5-6.4,3.9-11.4,2.5-14.4-.1,5.3-1.8,17.6-13.9,23.7Z"/>
        </g>
      </g>
    </mask>
    <linearGradient id="New_Gradient_Swatch_2" data-name="New Gradient Swatch 2" x1="54.7" y1="13.1" x2="44.4" y2="33.9" gradientUnits="userSpaceOnUse">
      <stop offset="0" stop-color="#fff"/>
      <stop offset="1" stop-color="#231f20"/>
    </linearGradient>
    <linearGradient id="linear-gradient3" x1="43.5" y1="23.7" x2="53.1" y2="7" gradientUnits="userSpaceOnUse">
      <stop offset="0" stop-color="#38b34a"/>
      <stop offset="1" stop-color="#8cc540"/>
    </linearGradient>
  </defs>
  <g class="st6">
    <g id="Layer_1">
      <g>
        <path class="st5" d="M30,37.9c-1.6.5-3.1.8-4.5,1v12h11.6v-15.4c-2.1.8-4.4,1.6-7,2.4Z"/>
        <path class="st3" d="M25.5,35.9c1.9-.1,3.9-.4,5.9-.9,0,0,2.6-.6,5.7-2.2v-13.7h5c1-1.4,2.2-2.6,3.4-3.7,1.8-1.7,3.5-3.2,4-5.4H12.9v9.2h12.6v16.7Z"/>
        <path class="st10" d="M33.3,40.7c1.3-.3,2.5-.7,3.7-1.1v-4.1c-2.1.8-4.4,1.6-7,2.4-1.6.5-3.1.8-4.5,1v3c2.6,0,5.2-.4,7.9-1.1Z"/>
        <g>
          <path class="st2" d="M50.7,9.8c-.9,5.5-7.7,7.4-9,13.1-.6,2.6.1,4.3,1.1,5.4,4.4-3.2,6.7-8,6.7-8-2.9,12.6-17.8,16-17.8,16-10.4,2.4-20.3.3-25.1-4.8,2.9,7.3,14.3,10.8,26.4,7.8,8.1-2,14.5-6.4,17.7-11.4,7.9-11.2,0-18,0-18Z"/>
          <g class="st0">
            <path class="st8" d="M39.2,37c5.1-2.3,9.1-5.6,11.4-9.2,4.5-6.4,3.9-11.4,2.5-14.4-.1,5.3-1.8,17.6-13.9,23.7Z"/>
          </g>
          <path class="st4" d="M50.8,9.9c0,0-.2-.1-.2-.1-.9,5.5-7.7,7.4-9,13.1-.6,2.6.1,4.3,1.1,5.4,0,0-.8-4.8,4-8,4.6-3,5.4-6.9,4.1-10.3Z"/>
        </g>
      </g>
      <g>
        <path class="st11" d="M68.7,24.2c-.5,0-.9-.1-1.3-.4-.4-.3-.5-.7-.5-1.1s.2-.9.5-1.2.8-.4,1.3-.4h16.5c.5,0,1,.1,1.3.4.4.3.5.7.5,1.1s-.2.9-.5,1.2c-.4.3-.8.4-1.3.4h-16.5ZM76.9,44.2c-.6,0-1.1-.2-1.4-.5-.4-.3-.5-.7-.5-1.2v-19.8h3.9v19.8c0,.5-.2.9-.6,1.2-.4.3-.8.5-1.4.5Z"/>
        <path class="st11" d="M105,26.8c.5,0,.9.2,1.3.5.4.3.5.7.5,1.2v8.7c0,2.3-.7,4.1-2.1,5.4-1.4,1.3-3.4,1.9-6,1.9s-4.6-.6-6-1.9c-1.4-1.3-2.1-3.1-2.1-5.4v-8.7c0-.5.2-.9.5-1.2.4-.3.8-.5,1.3-.5s.9.2,1.3.5c.4.3.5.7.5,1.2v8.7c0,1.4.4,2.5,1.1,3.2.7.7,1.8,1.1,3.3,1.1s2.6-.4,3.3-1.1c.7-.7,1.1-1.8,1.1-3.2v-8.7c0-.5.2-.9.5-1.2.4-.3.8-.5,1.3-.5Z"/>
        <path class="st11" d="M115.8,42.5c0,.5-.2.9-.5,1.2-.4.3-.8.5-1.3.5s-.9-.2-1.3-.5c-.4-.3-.5-.7-.5-1.2v-21.1c0-.5.2-.9.5-1.2.4-.3.8-.5,1.3-.5s1,.2,1.3.5c.3.3.5.7.5,1.2v21.1Z"/>
        <path class="st11" d="M120.1,41.5c-.2-.3-.3-.7-.3-1.1,0-.4.3-.8.8-1,.3-.2.7-.3,1.1-.2.4,0,.7.2,1.1.5.7.7,1.4,1.2,2.3,1.6s1.9.6,3,.6c.5,0,1,0,1.5-.2.5-.1.9-.3,1.3-.7.4-.3.5-.8.5-1.4s-.2-1-.6-1.3-.9-.6-1.5-.8c-.6-.2-1.3-.4-2.1-.6-.8-.2-1.6-.4-2.3-.7-.8-.2-1.5-.6-2.1-.9-.6-.4-1.2-.9-1.5-1.5s-.6-1.4-.6-2.3.3-1.9.9-2.7c.6-.7,1.5-1.3,2.5-1.8,1-.4,2.2-.6,3.3-.6s1.5,0,2.3.2c.8.2,1.5.4,2.3.8.7.4,1.4.8,1.9,1.4.2.3.4.6.4,1s-.2.8-.6,1.1c-.3.2-.6.3-1.1.3-.4,0-.8-.2-1-.4-.5-.5-1.1-.9-1.8-1.2-.7-.3-1.6-.4-2.5-.4s-.9,0-1.4.2c-.5.1-.9.3-1.3.6-.3.3-.5.8-.5,1.4s.2,1,.6,1.3.9.6,1.6.8c.7.2,1.4.4,2.1.6.8.2,1.5.4,2.2.6s1.4.6,2,.9,1.1.9,1.5,1.5.6,1.4.6,2.3-.3,2-1,2.8c-.7.8-1.6,1.3-2.6,1.7-1.1.4-2.2.6-3.3.6s-2.8-.2-4.1-.7c-1.4-.5-2.5-1.2-3.5-2.4Z"/>
        <path class="st11" d="M140.2,24.5c-.7,0-1.2-.1-1.5-.3-.3-.2-.5-.6-.5-1.2v-.5c0-.6.2-.9.5-1.2.3-.2.8-.3,1.5-.3s1.2.1,1.6.3c.3.2.5.6.5,1.1v.5c0,.6-.2,1-.5,1.2-.3.2-.9.3-1.6.3ZM142.1,42.5c0,.5-.2.9-.5,1.2-.3.3-.8.5-1.3.5s-1-.2-1.3-.5c-.3-.3-.5-.7-.5-1.2v-14.2c0-.5.2-.9.5-1.2.4-.3.8-.5,1.3-.5s1,.2,1.3.5c.3.3.5.7.5,1.2v14.2Z"/>
        <path class="st11" d="M165.3,44.5c-1.7,0-3.3-.2-4.7-.6-1.4-.4-2.7-1.2-3.9-2.2-.3-.2-.5-.4-.6-.7-.1-.3-.2-.5-.2-.8,0-.4.2-.8.5-1.1.3-.3.8-.5,1.3-.5s.8.1,1.1.4c.9.8,1.9,1.4,2.9,1.8,1,.4,2.2.6,3.5.6s1.9-.1,2.7-.4c.8-.3,1.5-.7,1.9-1.2.5-.5.7-1,.7-1.7,0-.8-.3-1.4-.8-2-.5-.5-1.2-.9-2.1-1.3s-2.1-.6-3.4-.9c-1.2-.2-2.3-.5-3.3-.9s-1.8-.8-2.5-1.3c-.7-.5-1.2-1.2-1.5-1.9-.4-.7-.5-1.6-.5-2.6s.4-2.5,1.2-3.5c.8-1,1.8-1.7,3.2-2.3,1.3-.5,2.8-.8,4.5-.8s3,.2,4.3.6c1.3.4,2.4,1,3.2,1.7.6.5.9,1,.9,1.5s-.2.8-.5,1.1c-.4.3-.8.5-1.2.5s-.6,0-.9-.3c-.4-.4-.9-.7-1.6-1-.7-.3-1.4-.5-2.1-.7-.7-.2-1.5-.3-2.1-.3-1.1,0-2,.1-2.8.4-.8.3-1.4.7-1.8,1.1-.4.5-.6,1-.6,1.7s.2,1.4.7,1.8c.5.5,1.1.9,2,1.2.8.3,1.8.6,2.9.8,1.3.3,2.5.6,3.6.9,1.1.3,1.9.8,2.7,1.3.7.5,1.3,1.2,1.7,1.9.4.8.6,1.7.6,2.9s-.4,2.5-1.2,3.5c-.8,1-1.9,1.8-3.3,2.3s-2.8.8-4.5.8Z"/>
        <path class="st11" d="M187.3,44.5c-2,0-3.8-.4-5.2-1.1-1.5-.8-2.6-1.8-3.4-3.1-.8-1.3-1.2-2.9-1.2-4.6s.4-3.6,1.3-5c.9-1.4,2-2.4,3.4-3.2s2.9-1.1,4.4-1.1,2.3.2,3.4.6c1.1.4,2,1,2.9,1.8.8.8,1.5,1.7,2,2.7s.7,2.1.8,3.4c0,.4-.2.8-.6,1.1-.4.3-.8.4-1.3.4h-14.2l-.9-2.8h13.7l-.7.6v-.8c0-.8-.4-1.4-.9-2-.5-.6-1.1-1-1.9-1.4-.7-.3-1.5-.5-2.3-.5s-1.4.1-2.1.3-1.3.5-1.8,1c-.5.5-.9,1.1-1.2,1.8s-.5,1.7-.5,2.8.3,2.3.8,3.2c.6.9,1.3,1.6,2.3,2.1s2,.7,3.1.7,1.6,0,2.2-.2c.6-.2,1.1-.4,1.5-.6.4-.2.7-.5,1-.7.4-.2.7-.3,1.1-.3s.8.1,1.1.4.4.6.4,1-.3.9-.8,1.3c-.7.6-1.6,1.1-2.7,1.5-1.2.4-2.4.7-3.6.7Z"/>
        <path class="st11" d="M201.4,44.2c-.5,0-1-.2-1.3-.5-.4-.3-.5-.7-.5-1.2v-14c0-.5.2-.9.5-1.2s.8-.5,1.3-.5.9.2,1.3.5.5.7.5,1.2v3.7l-.4-1.4c.2-.6.5-1.2.9-1.7s.9-1,1.4-1.4c.6-.4,1.2-.7,1.9-.9s1.4-.3,2.2-.3,1.2.2,1.6.5c.5.3.7.7.7,1.2s-.2,1-.5,1.3c-.3.3-.7.4-1.1.4s-.7,0-1.1-.2c-.3-.1-.7-.2-1.2-.2s-1,.1-1.6.4c-.5.2-1,.6-1.5,1.1-.4.5-.8,1-1,1.7s-.4,1.4-.4,2.2v7.9c0,.5-.2.9-.5,1.2-.4.3-.8.5-1.3.5Z"/>
        <path class="st11" d="M215.2,26.6c.4,0,.7,0,1,.3.3.2.6.4.7.8l5.7,12-.7.3,5.8-12.3c.3-.7.9-1.1,1.6-1.1.5,0,.9.1,1.2.4.3.3.5.6.5,1.1s0,.3,0,.4c0,.2-.1.3-.2.4l-6.9,14.2c-.3.7-.8,1-1.6,1.1-.4,0-.7,0-1.1-.2-.4-.2-.6-.5-.8-.8l-6.9-14.1c0-.1,0-.2-.1-.4s0-.3,0-.5c0-.3.2-.7.5-1,.3-.3.8-.5,1.3-.5Z"/>
        <path class="st11" d="M236.4,24.5c-.7,0-1.2-.1-1.5-.3-.3-.2-.5-.6-.5-1.2v-.5c0-.6.2-.9.5-1.2.3-.2.8-.3,1.5-.3s1.3.1,1.6.3c.3.2.5.6.5,1.1v.5c0,.6-.2,1-.5,1.2-.3.2-.9.3-1.6.3ZM238.3,42.5c0,.5-.2.9-.5,1.2-.3.3-.8.5-1.3.5s-1-.2-1.3-.5c-.3-.3-.5-.7-.5-1.2v-14.2c0-.5.2-.9.5-1.2.4-.3.8-.5,1.3-.5s1,.2,1.3.5c.3.3.5.7.5,1.2v14.2Z"/>
        <path class="st11" d="M251.7,26.4c1.3,0,2.5.1,3.5.4s1.8.6,2.4,1.1c.6.5.9,1,.9,1.6s-.1.7-.4,1c-.2.3-.6.5-1.1.5s-.7,0-.9-.1c-.2,0-.4-.2-.6-.4-.2-.2-.4-.3-.7-.4-.3-.2-.7-.3-1.2-.3s-1-.1-1.4-.1c-1.3,0-2.4.3-3.3.8-.9.5-1.7,1.2-2.2,2.1-.5.9-.8,1.9-.8,3.1s.3,2.2.8,3.1c.5.9,1.2,1.6,2.1,2.2.9.5,2,.8,3.2.8s1.3,0,1.8-.1c.5,0,.9-.2,1.2-.4.4-.2.7-.4,1-.6.3-.2.6-.3,1.1-.3s.9.1,1.2.4c.3.3.4.7.4,1.1s-.3,1-1,1.4-1.5.8-2.6,1.1c-1.1.3-2.3.4-3.6.4-1.9,0-3.5-.4-4.9-1.2-1.4-.8-2.5-1.9-3.2-3.2-.8-1.4-1.1-2.9-1.1-4.6s.4-3.3,1.2-4.6c.8-1.4,1.9-2.4,3.3-3.2,1.4-.8,3.1-1.2,4.9-1.2Z"/>
        <path class="st11" d="M271,44.5c-2,0-3.8-.4-5.2-1.1-1.5-.8-2.6-1.8-3.4-3.1-.8-1.3-1.2-2.9-1.2-4.6s.4-3.6,1.3-5c.9-1.4,2-2.4,3.4-3.2s2.9-1.1,4.4-1.1,2.3.2,3.4.6c1.1.4,2,1,2.9,1.8.8.8,1.5,1.7,2,2.7s.7,2.1.8,3.4c0,.4-.2.8-.6,1.1-.4.3-.8.4-1.3.4h-14.2l-.9-2.8h13.7l-.7.6v-.8c0-.8-.4-1.4-.9-2-.5-.6-1.1-1-1.9-1.4-.7-.3-1.5-.5-2.3-.5s-1.4.1-2.1.3-1.3.5-1.8,1c-.5.5-.9,1.1-1.2,1.8s-.5,1.7-.5,2.8.3,2.3.8,3.2c.6.9,1.3,1.6,2.3,2.1s2,.7,3.1.7,1.6,0,2.2-.2c.6-.2,1.1-.4,1.5-.6.4-.2.7-.5,1-.7.4-.2.7-.3,1.1-.3s.8.1,1.1.4.4.6.4,1-.3.9-.8,1.3c-.7.6-1.6,1.1-2.7,1.5-1.2.4-2.4.7-3.6.7Z"/>
        <path class="st11" d="M282.1,41.5c-.2-.3-.3-.7-.3-1.1,0-.4.3-.8.8-1,.3-.2.7-.3,1.1-.2.4,0,.7.2,1.1.5.7.7,1.4,1.2,2.3,1.6s1.9.6,3,.6c.5,0,1,0,1.5-.2.5-.1.9-.3,1.3-.7.4-.3.5-.8.5-1.4s-.2-1-.6-1.3c-.4-.3-.9-.6-1.5-.8-.6-.2-1.3-.4-2.1-.6-.8-.2-1.6-.4-2.3-.7-.8-.2-1.5-.6-2.1-.9-.6-.4-1.2-.9-1.5-1.5s-.6-1.4-.6-2.3.3-1.9.9-2.7c.6-.7,1.5-1.3,2.5-1.8,1-.4,2.2-.6,3.3-.6s1.5,0,2.3.2c.8.2,1.5.4,2.3.8s1.4.8,1.9,1.4c.2.3.4.6.4,1s-.2.8-.6,1.1-.6.3-1.1.3c-.4,0-.8-.2-1-.4-.5-.5-1.1-.9-1.8-1.2-.7-.3-1.6-.4-2.5-.4s-.9,0-1.4.2c-.5.1-.9.3-1.3.6-.3.3-.5.8-.5,1.4s.2,1,.6,1.3.9.6,1.6.8c.7.2,1.4.4,2.1.6.8.2,1.5.4,2.2.6s1.4.6,2,.9c.6.4,1.1.9,1.5,1.5.4.6.6,1.4.6,2.3s-.3,2-1,2.8c-.7.8-1.6,1.3-2.6,1.7-1.1.4-2.2.6-3.3.6s-2.8-.2-4.1-.7c-1.4-.5-2.5-1.2-3.5-2.4Z"/>
      </g>
    </g>
  </g>
</svg>