<?xml version="1.0" encoding="UTF-8"?>
<svg id="Layer_1" xmlns="http://www.w3.org/2000/svg" version="1.1" viewBox="0 0 285.2 42.7">
  <!-- Generator: Adobe Illustrator 29.5.1, SVG Export Plug-In . SVG Version: 2.1.0 Build 141)  -->
  <defs>
    <style>
      .st0 {
        fill: #231f20;
      }

      .st1 {
        fill: #333;
      }

      .st1, .st2 {
        fill-rule: evenodd;
      }

      .st2 {
        fill: #ef4223;
      }
    </style>
  </defs>
  <g>
    <path class="st0" d="M62,16.1c-.9-.7-2.8-2.3-5.4-2.3-3.8,0-6.2,3.5-6.2,7.1s2.4,6.7,5.4,6.7,4.1-2.3,4.1-4.2v-.7h-5.1v-2.4h7.7v9.4h-2.4l-.2-2.2c-.7.8-2.1,2.5-4.6,2.5-4,0-7.6-3.8-7.6-9s3.5-9.6,8.9-9.6,4.4,1,5.4,1.6v3Z"/>
    <path class="st0" d="M72.6,19.9c-.5-.2-.9-.3-1.3-.3-2,0-3.4,2.1-3.4,4.6v5.6h-2.4v-12.3h2.2l.2,2.3h0c.3-.8,1-2.5,3.4-2.5s.7,0,1.3.2v2.5Z"/>
    <path class="st0" d="M73.6,23.6c0-3.7,2.8-6.4,6.4-6.4s6.4,3,6.4,6.4-3,6.4-6.3,6.4-6.5-2.8-6.5-6.4ZM83.7,23.6c0-2.4-1.6-4.3-3.7-4.3s-3.8,1.9-3.8,4.3,1.7,4.3,3.7,4.3,3.8-2,3.8-4.3Z"/>
    <path class="st0" d="M91.4,17.4v7.4c0,1.4.5,2.9,2.4,2.9s3.4-2.3,3.4-4.5v-5.8h2.4v12.3h-2.3l-.2-2.1h0c-1,1.8-2.5,2.4-4,2.4-2.4,0-4.2-1.6-4.2-4.5v-8.1h2.4Z"/>
    <path class="st0" d="M105.7,35.5h-2.4v-18h2.3l.2,2.1h0c.5-.8,1.5-2.4,4.1-2.4s5.5,3,5.5,6.3-2.9,6.6-5.8,6.6-1.9,0-3.7-1.4v6.9ZM105.7,26c.7.7,1.7,1.7,3.4,1.7s3.5-2,3.5-4.2-1.6-4-3.3-4-3.6,1.7-3.6,4.4v2.1Z"/>
    <path class="st0" d="M125.2,23.6c0-3.7,2.8-6.4,6.4-6.4s6.4,3,6.4,6.4-3,6.4-6.3,6.4-6.5-2.8-6.5-6.4ZM135.4,23.6c0-2.4-1.6-4.3-3.7-4.3s-3.8,1.9-3.8,4.3,1.7,4.3,3.7,4.3,3.8-2,3.8-4.3Z"/>
    <path class="st0" d="M141.1,14.9c0-1.6.7-3.5,3.8-3.5s1.5.2,2,.4v2.2c-.6-.2-1-.4-1.5-.4-1.3,0-1.9.9-1.9,2.2v1.7h3.3v2.1h-3.3v10.2h-2.4v-10.2h-2.1v-2.1h2.1v-2.5Z"/>
    <path class="st0" d="M172.5,16c-.9-.8-2.6-2.3-5.2-2.3-3.7,0-6,3.5-6,7.1s2.6,6.8,5.7,6.8,4.7-1.6,5.5-2.3v3c-1,.6-2.9,1.7-5.6,1.7-4.5,0-8.3-3.7-8.3-9.2s3.7-9.4,8.6-9.4,4.1,1,5.2,1.6v3Z"/>
    <path class="st0" d="M174.2,23.6c0-3.7,2.8-6.4,6.4-6.4s6.4,3,6.4,6.4-3,6.4-6.3,6.4-6.5-2.8-6.5-6.4ZM184.4,23.6c0-2.4-1.6-4.3-3.7-4.3s-3.8,1.9-3.8,4.3,1.7,4.3,3.7,4.3,3.8-2,3.8-4.3Z"/>
    <path class="st0" d="M206.9,29.7h-2.4v-7.6c0-.9-.2-2.7-2-2.7s-3,2.2-3,4.5v5.8h-2.4v-7.6c0-.7-.2-2.7-2-2.7s-3,2-3,4.6v5.7h-2.4v-12.3h2.3l.2,1.9c.6-.8,1.5-2.1,3.7-2.1s3.3,2,3.4,2.6c.2-.5.5-.9,1-1.5.8-.7,1.8-1.1,2.8-1.1,2.2,0,3.8,1.6,3.8,4.2v8.4Z"/>
    <path class="st0" d="M213,35.5h-2.4v-18h2.3l.2,2.1h0c.5-.8,1.5-2.4,4.1-2.4s5.5,3,5.5,6.3-2.9,6.6-5.8,6.6-1.9,0-3.7-1.4v6.9ZM213,26c.7.7,1.7,1.7,3.4,1.7s3.5-2,3.5-4.2-1.6-4-3.3-4-3.6,1.7-3.6,4.4v2.1Z"/>
    <path class="st0" d="M234.9,26.8c0,.5.2,1,.8,1s.4,0,.8-.2v2c-.6.2-1.1.3-1.8.3-1.6,0-2.3-.8-2.3-2.1h0c-.5.8-1.5,2.2-3.8,2.2s-4.3-1.5-4.3-3.9,4.1-3.9,8.2-4.3c0-1.9-1.9-2.4-3-2.4-1.8,0-3.2,1.1-4.2,1.9v-2.6c.9-.5,2.6-1.4,4.6-1.4,3.4,0,5,2.4,5,4.6v5ZM231.3,23.8c-3.1.4-4.3.8-4.3,2.2s1.1,1.9,2.2,1.9,3.2-.2,3.3-4.3c-.2,0-.8.1-1.2.2Z"/>
    <path class="st0" d="M248.9,29.7h-2.4v-7.6c0-1.5-.6-2.7-2.3-2.7s-3.5,2.4-3.5,4.5v5.8h-2.4v-12.3h2.2l.2,2.1h0c.5-.8,1.4-2.4,3.9-2.4s4.3,2.2,4.3,4.2v8.4Z"/>
    <path class="st0" d="M252.5,13.3c0-.9.5-1.6,1.3-1.6s1.4.6,1.4,1.6-.6,1.6-1.4,1.6-1.4-.8-1.4-1.6ZM255,17.4v12.3h-2.4v-12.3h2.4Z"/>
    <path class="st0" d="M260.6,23.5c.2,3.3,2.8,4.1,4.1,4.1s3.4-1.1,4.6-2.3v3c-.8.5-2.5,1.7-5,1.7-4,0-6.3-3.2-6.3-6.4s3-6.4,6.2-6.4,3.2.4,4.5,2.3c1.1,1.6,1.1,3.2,1.1,4.1h-9.2ZM266.9,21.6c-.2-1.7-1.5-2.4-2.7-2.4s-2.2,0-3.3,2.4h6Z"/>
    <path class="st0" d="M280.3,20.8c-2.1-1.5-3.9-1.5-4.3-1.5-1.3,0-2.4.5-2.4,1.3s1.2,1.3,2.6,1.6c3.5.8,4.9,1.8,4.9,3.7s-2.1,4-5.4,4-4-.9-4.7-1.3v-2.7c1.3,1.1,3,1.8,4.7,1.8s2.7-.5,2.7-1.6-.6-1.3-2.9-1.8c-2.6-.6-3.2-1.1-3.7-1.5-.3-.4-.9-1-.9-2.1,0-2,1.9-3.7,5-3.7s3.5.7,4.3,1.1v2.6Z"/>
  </g>
  <path class="st2" d="M43,8.2l3.7-6.5H1.4l3.7,6.5h15.7v7.8l1.4,2.4,1.9,3.2,3.2-5.6v-7.8h15.7Z"/>
  <path class="st1" d="M14.5,11.4h-7.5c5.7,9.8,11.4,19.7,17,29.5,5.7-9.8,11.4-19.7,17-29.5h-7.5l-9.6,16.6c-3.2-5.5-6.4-11.1-9.6-16.6h0Z"/>
</svg>