<?xml version="1.0" encoding="utf-8"?>
<!-- Generator: Adobe Illustrator 28.0.0, SVG Export Plug-In . SVG Version: 6.00 Build 0)  -->
<svg version="1.1" id="Layer_1" xmlns="http://www.w3.org/2000/svg" xmlns:xlink="http://www.w3.org/1999/xlink" x="0px" y="0px"
	 viewBox="0 0 300 60" style="enable-background:new 0 0 300 60;" xml:space="preserve">
<style type="text/css">
	.st0{fill:#231F20;stroke:#231F20;stroke-miterlimit:10;}
	.st1{fill:url(#SVGID_1_);}
	.st2{fill:url(#SVGID_00000145060725869320420720000006850839708384144539_);}
	.st3{fill:url(#SVGID_00000010301826825005378570000007129022458406338231_);}
	.st4{fill:url(#SVGID_00000172402860553305213750000016952002898828065929_);}
	.st5{fill:url(#SVGID_00000170277608782463831240000002920435560562227614_);}
	.st6{fill:url(#SVGID_00000124140790999648121020000000391199610134359171_);}
</style>
<g>
	<path class="st0" d="M90,24.8c0.2,0,0.4,0.1,0.5,0.2c0.1,0.2,0.2,0.3,0.2,0.6v11c0,1.3-0.3,2.5-0.8,3.6c-0.6,1.1-1.3,1.9-2.3,2.5
		c-0.9,0.6-2,0.9-3.2,0.9c-1.2,0-2.2-0.3-3.2-0.9s-1.7-1.5-2.3-2.5c-0.6-1.1-0.8-2.3-0.8-3.6v-11c0-0.2,0.1-0.4,0.2-0.6
		c0.1-0.2,0.3-0.2,0.6-0.2c0.2,0,0.4,0.1,0.5,0.2c0.1,0.2,0.2,0.3,0.2,0.6v11c0,1,0.2,2,0.7,2.8c0.4,0.8,1,1.5,1.8,2
		c0.7,0.5,1.5,0.7,2.4,0.7c0.9,0,1.7-0.2,2.4-0.7c0.7-0.5,1.3-1.1,1.8-2c0.4-0.8,0.7-1.7,0.7-2.8v-11c0-0.2,0.1-0.4,0.2-0.6
		C89.7,24.9,89.8,24.8,90,24.8z"/>
	<path class="st0" d="M100.7,24.8c0.1,0,0.2,0,0.3,0.1c0.1,0.1,0.2,0.1,0.3,0.3l6.6,11l-0.6,0l6.6-11c0.2-0.3,0.4-0.4,0.6-0.3
		c0.2,0,0.4,0.1,0.5,0.2c0.1,0.2,0.2,0.3,0.2,0.6v17c0,0.2-0.1,0.4-0.2,0.6c-0.2,0.2-0.3,0.2-0.5,0.2s-0.4-0.1-0.5-0.2
		c-0.1-0.2-0.2-0.3-0.2-0.6V27.2l0.4,0.1l-6.1,10.2c0,0.1-0.1,0.2-0.2,0.3c-0.1,0.1-0.2,0.1-0.3,0.1c-0.1,0-0.2,0-0.3-0.1
		c-0.1-0.1-0.2-0.1-0.3-0.3L101,27.2l0.5-0.3v15.8c0,0.2-0.1,0.4-0.2,0.6c-0.1,0.2-0.3,0.2-0.5,0.2c-0.2,0-0.4-0.1-0.5-0.2
		c-0.1-0.2-0.2-0.3-0.2-0.6v-17c0-0.2,0.1-0.4,0.2-0.5C100.4,24.9,100.5,24.8,100.7,24.8z"/>
	<path class="st0" d="M130.2,26.9l-5.8,16c-0.1,0.2-0.2,0.3-0.3,0.4c-0.1,0.1-0.2,0.1-0.4,0.1c-0.2,0-0.4-0.1-0.5-0.2
		c-0.1-0.1-0.2-0.3-0.2-0.5c0-0.1,0-0.2,0-0.3l6.3-17.2c0.1-0.2,0.2-0.3,0.3-0.4c0.1-0.1,0.3-0.1,0.4-0.1c0.2,0,0.3,0,0.4,0.1
		c0.1,0.1,0.2,0.2,0.3,0.4l6.3,17.1c0,0.1,0,0.2,0,0.3c0,0.2-0.1,0.4-0.2,0.6c-0.1,0.1-0.3,0.2-0.5,0.2c-0.2,0-0.3,0-0.4-0.1
		c-0.1-0.1-0.2-0.2-0.3-0.4l-6-16.2L130.2,26.9z M125.8,38.1l0.6-1.6h7.4l0.3,1.6H125.8z"/>
	<path class="st0" d="M155.5,26.3c-0.2,0-0.4-0.1-0.5-0.2c-0.1-0.1-0.2-0.3-0.2-0.5c0-0.2,0.1-0.4,0.2-0.6c0.1-0.1,0.3-0.2,0.5-0.2
		h11.4c0.2,0,0.4,0.1,0.5,0.2c0.1,0.1,0.2,0.3,0.2,0.6s-0.1,0.4-0.2,0.5c-0.1,0.1-0.3,0.2-0.5,0.2H155.5z M161.2,43.5
		c-0.2,0-0.4-0.1-0.6-0.2c-0.1-0.2-0.2-0.3-0.2-0.6v-17h1.5v17c0,0.2-0.1,0.4-0.2,0.6C161.6,43.4,161.4,43.5,161.2,43.5z"/>
	<path class="st0" d="M176.3,43.5c-0.2,0-0.4-0.1-0.6-0.2c-0.2-0.2-0.2-0.3-0.2-0.6v-17c0-0.2,0.1-0.4,0.2-0.6s0.3-0.2,0.5-0.2h6.5
		c0.9,0,1.7,0.2,2.4,0.7c0.7,0.4,1.3,1,1.7,1.8c0.4,0.8,0.6,1.6,0.6,2.6c0,0.8-0.1,1.5-0.4,2.1c-0.3,0.6-0.6,1.2-1.1,1.7
		c-0.5,0.5-1,0.8-1.6,1l-0.8-0.3c0.6,0.1,1.1,0.3,1.7,0.7c0.5,0.4,0.9,0.9,1.2,1.5c0.3,0.6,0.5,1.4,0.5,2.2c0,0.8,0.1,1.4,0.1,1.8
		c0.1,0.4,0.1,0.7,0.3,1c0.1,0.2,0.3,0.4,0.4,0.5c0.2,0.1,0.3,0.3,0.3,0.5c0.1,0.2,0,0.4-0.1,0.6c-0.1,0.1-0.2,0.2-0.3,0.3
		c-0.1,0.1-0.3,0.1-0.4,0.1c-0.1,0-0.2,0-0.4-0.1c-0.2-0.1-0.5-0.4-0.7-0.7c-0.2-0.3-0.4-0.7-0.6-1.3c-0.2-0.6-0.2-1.4-0.2-2.4
		c0-0.7-0.1-1.3-0.3-1.7c-0.2-0.4-0.5-0.8-0.8-1c-0.3-0.2-0.7-0.4-1-0.5s-0.7-0.1-1.1-0.1h-5.6l0.3-0.4v7.5c0,0.2-0.1,0.4-0.2,0.6
		C176.6,43.4,176.5,43.5,176.3,43.5z M176.7,34h6c0.5-0.1,1-0.2,1.5-0.6c0.5-0.3,0.9-0.8,1.2-1.4c0.3-0.6,0.5-1.3,0.5-2.1
		c0-1-0.3-1.9-0.9-2.5c-0.6-0.7-1.4-1-2.4-1h-5.7L177,26v8.4L176.7,34z"/>
	<path class="st0" d="M201.9,26.9l-5.8,16c-0.1,0.2-0.2,0.3-0.3,0.4c-0.1,0.1-0.2,0.1-0.4,0.1c-0.2,0-0.4-0.1-0.5-0.2
		c-0.1-0.1-0.2-0.3-0.2-0.5c0-0.1,0-0.2,0-0.3l6.3-17.2c0.1-0.2,0.2-0.3,0.3-0.4c0.1-0.1,0.3-0.1,0.4-0.1c0.2,0,0.3,0,0.4,0.1
		c0.1,0.1,0.2,0.2,0.3,0.4l6.3,17.1c0,0.1,0,0.2,0,0.3c0,0.2-0.1,0.4-0.2,0.6c-0.1,0.1-0.3,0.2-0.5,0.2c-0.2,0-0.3,0-0.4-0.1
		c-0.1-0.1-0.2-0.2-0.3-0.4l-6-16.2L201.9,26.9z M197.5,38.1l0.6-1.6h7.4l0.3,1.6H197.5z"/>
	<path class="st0" d="M223.4,24.8c1.2,0,2.2,0.2,3.1,0.7c0.9,0.5,1.6,1.2,2.2,2.1c0.6,0.9,1,1.9,1.3,3c0.3,1.1,0.4,2.3,0.4,3.5
		c0,1.7-0.3,3.3-0.8,4.7c-0.5,1.4-1.3,2.5-2.3,3.4c-1,0.8-2.3,1.3-3.9,1.3h-6.1c-0.2,0-0.4-0.1-0.5-0.2c-0.1-0.2-0.2-0.3-0.2-0.6
		v-17c0-0.2,0.1-0.4,0.2-0.6s0.3-0.2,0.5-0.2H223.4z M223.1,41.9c1.3,0,2.4-0.3,3.3-1c0.8-0.7,1.5-1.6,1.8-2.8
		c0.4-1.2,0.6-2.5,0.6-3.9c0-1-0.1-2-0.3-2.9c-0.2-0.9-0.6-1.8-1-2.5s-1-1.3-1.8-1.7c-0.7-0.4-1.6-0.6-2.6-0.6h-5.2l0.2-0.2v16
		l-0.1-0.3H223.1z"/>
	<path class="st0" d="M239.3,24.8h8.8c0.2,0,0.4,0.1,0.5,0.2c0.1,0.2,0.2,0.3,0.2,0.6c0,0.2-0.1,0.4-0.2,0.6
		c-0.1,0.1-0.3,0.2-0.5,0.2h-8.2l0.2-0.5v7.5l-0.3-0.3h7.2c0.2,0,0.4,0.1,0.5,0.2c0.1,0.2,0.2,0.3,0.2,0.6c0,0.2-0.1,0.4-0.2,0.6
		c-0.1,0.1-0.3,0.2-0.5,0.2h-7.1l0.2-0.3V42l-0.1-0.2h8.1c0.2,0,0.4,0.1,0.5,0.2c0.1,0.2,0.2,0.3,0.2,0.6c0,0.2-0.1,0.4-0.2,0.6
		c-0.1,0.1-0.3,0.2-0.5,0.2h-8.8c-0.2,0-0.4-0.1-0.5-0.2c-0.1-0.2-0.2-0.3-0.2-0.6v-17c0-0.2,0.1-0.4,0.2-0.6S239.1,24.8,239.3,24.8
		z"/>
	<path class="st0" d="M257.8,43.5c-0.2,0-0.4-0.1-0.6-0.2c-0.2-0.2-0.2-0.3-0.2-0.6v-17c0-0.2,0.1-0.4,0.2-0.6s0.3-0.2,0.5-0.2h6.5
		c0.9,0,1.7,0.2,2.4,0.7c0.7,0.4,1.3,1,1.7,1.8c0.4,0.8,0.6,1.6,0.6,2.6c0,0.8-0.1,1.5-0.4,2.1c-0.3,0.6-0.6,1.2-1.1,1.7
		c-0.5,0.5-1,0.8-1.6,1l-0.8-0.3c0.6,0.1,1.1,0.3,1.7,0.7c0.5,0.4,0.9,0.9,1.2,1.5c0.3,0.6,0.5,1.4,0.5,2.2c0,0.8,0.1,1.4,0.1,1.8
		c0.1,0.4,0.1,0.7,0.3,1c0.1,0.2,0.3,0.4,0.4,0.5c0.2,0.1,0.3,0.3,0.3,0.5c0.1,0.2,0,0.4-0.1,0.6c-0.1,0.1-0.2,0.2-0.3,0.3
		c-0.1,0.1-0.3,0.1-0.4,0.1c-0.1,0-0.2,0-0.4-0.1c-0.2-0.1-0.5-0.4-0.7-0.7c-0.2-0.3-0.4-0.7-0.6-1.3c-0.2-0.6-0.2-1.4-0.2-2.4
		c0-0.7-0.1-1.3-0.3-1.7c-0.2-0.4-0.5-0.8-0.8-1c-0.3-0.2-0.7-0.4-1-0.5s-0.7-0.1-1.1-0.1h-5.6l0.3-0.4v7.5c0,0.2-0.1,0.4-0.2,0.6
		C258.1,43.4,258,43.5,257.8,43.5z M258.2,34h6c0.5-0.1,1-0.2,1.5-0.6c0.5-0.3,0.9-0.8,1.2-1.4c0.3-0.6,0.5-1.3,0.5-2.1
		c0-1-0.3-1.9-0.9-2.5c-0.6-0.7-1.4-1-2.4-1h-5.7l0.2-0.3v8.4L258.2,34z"/>
	<path class="st0" d="M282.4,43.7c-1.2,0-2.3-0.2-3.2-0.6c-0.9-0.4-1.7-1.1-2.6-2c-0.1-0.1-0.1-0.2-0.2-0.3
		c-0.1-0.1-0.1-0.2-0.1-0.4c0-0.2,0.1-0.4,0.2-0.6c0.2-0.2,0.3-0.3,0.5-0.3s0.4,0.1,0.5,0.3c0.6,0.7,1.3,1.3,2.1,1.7
		c0.8,0.4,1.6,0.6,2.6,0.6c0.8,0,1.4-0.1,2-0.4c0.6-0.3,1.1-0.6,1.4-1.1c0.4-0.5,0.5-1.1,0.5-1.7c0-0.8-0.2-1.5-0.6-2
		c-0.4-0.5-0.9-0.9-1.6-1.3c-0.7-0.3-1.4-0.6-2.2-0.9c-0.7-0.2-1.3-0.5-1.9-0.8s-1.1-0.6-1.6-1s-0.8-0.9-1.1-1.5
		c-0.3-0.6-0.4-1.3-0.4-2.1c0-0.9,0.2-1.8,0.7-2.5c0.4-0.7,1.1-1.3,1.9-1.7s1.8-0.6,2.9-0.6c0.9,0,1.8,0.2,2.7,0.5
		c0.9,0.4,1.6,0.9,2.1,1.6c0.2,0.3,0.4,0.5,0.4,0.8c0,0.2-0.1,0.4-0.2,0.5c-0.2,0.2-0.3,0.3-0.5,0.3c-0.2,0-0.3-0.1-0.4-0.2
		c-0.3-0.4-0.6-0.7-1-1c-0.4-0.3-0.9-0.5-1.4-0.7c-0.5-0.2-1-0.2-1.6-0.2c-0.8,0-1.4,0.1-2,0.4c-0.6,0.3-1.1,0.6-1.4,1.1
		c-0.3,0.5-0.5,1.1-0.5,1.8c0,0.7,0.2,1.4,0.6,1.8c0.4,0.5,0.9,0.9,1.5,1.2s1.3,0.6,2,0.9c0.7,0.2,1.3,0.5,2,0.7
		c0.6,0.3,1.2,0.6,1.7,1s0.9,0.9,1.1,1.5c0.3,0.6,0.4,1.4,0.4,2.3c0,0.9-0.2,1.7-0.7,2.4s-1.1,1.3-1.9,1.7
		C284.4,43.5,283.5,43.7,282.4,43.7z"/>
</g>
<g>
	<g>
		<linearGradient id="SVGID_1_" gradientUnits="userSpaceOnUse" x1="31.2608" y1="21.3244" x2="31.2608" y2="37.6317">
			<stop  offset="5.208330e-03" style="stop-color:#75C9B3"/>
			<stop  offset="0.4792" style="stop-color:#26AFA4"/>
			<stop  offset="1" style="stop-color:#181330"/>
		</linearGradient>
		<rect x="27.6" y="19.6" class="st1" width="7.4" height="14.2"/>
	</g>
	<g>
		
			<linearGradient id="SVGID_00000085242826249210907600000007545542092827991702_" gradientUnits="userSpaceOnUse" x1="41.2109" y1="18.2398" x2="41.2109" y2="41.8453">
			<stop  offset="5.208330e-03" style="stop-color:#75C9B3"/>
			<stop  offset="0.4792" style="stop-color:#26AFA4"/>
			<stop  offset="1" style="stop-color:#181330"/>
		</linearGradient>
		
			<rect x="37.5" y="14.4" style="fill:url(#SVGID_00000085242826249210907600000007545542092827991702_);" width="7.4" height="22.9"/>
	</g>
	<g>
		
			<linearGradient id="SVGID_00000017505220933183189260000013590803773530062011_" gradientUnits="userSpaceOnUse" x1="51.2341" y1="11.5341" x2="51.2341" y2="38.7992">
			<stop  offset="5.208330e-03" style="stop-color:#75C9B3"/>
			<stop  offset="0.4792" style="stop-color:#26AFA4"/>
			<stop  offset="1" style="stop-color:#181330"/>
		</linearGradient>
		
			<rect x="47.5" y="9.8" style="fill:url(#SVGID_00000017505220933183189260000013590803773530062011_);" width="7.4" height="24.7"/>
	</g>
	<g>
		
			<linearGradient id="SVGID_00000012439857364171262800000016570301330395460799_" gradientUnits="userSpaceOnUse" x1="69.0267" y1="4.7841" x2="11.8038" y2="62.007">
			<stop  offset="5.208330e-03" style="stop-color:#75C9B3"/>
			<stop  offset="0.4792" style="stop-color:#26AFA4"/>
			<stop  offset="1" style="stop-color:#181330"/>
		</linearGradient>
		<path style="fill:url(#SVGID_00000012439857364171262800000016570301330395460799_);" d="M78.8,12.6l-21.2,5.3l2.7,2.7L43.7,37.2
			L31.4,24.9l0,0l0,0L13.8,42.5c-0.3,0.3-0.3,0.8,0,1c0.3,0.3,0.8,0.3,1,0l7.3-7.3c0.3-0.3,0.8-0.3,1,0c0.1,0.1,0.2,0.3,0.2,0.5
			c0,0.2-0.1,0.4-0.2,0.5l-0.2,0.2l0,0l-7,7c-0.3,0.3-0.3,0.8,0,1c0.3,0.3,0.8,0.3,1,0l3.5-3.5c0.3-0.3,0.8-0.3,1,0
			c0.1,0.1,0.2,0.3,0.2,0.5c0,0.2-0.1,0.4-0.2,0.5l-3.5,3.5c-0.3,0.3-0.3,0.8,0,1c0.3,0.3,0.8,0.3,1,0l12.4-12.4l12.3,12.3l0,0l0,0
			L78.8,12.6z"/>
		
			<linearGradient id="SVGID_00000081606212234476183350000000198675637094545080_" gradientUnits="userSpaceOnUse" x1="61.8346" y1="-2.4073" x2="4.6121" y2="54.8152">
			<stop  offset="5.208330e-03" style="stop-color:#75C9B3"/>
			<stop  offset="0.4792" style="stop-color:#26AFA4"/>
			<stop  offset="1" style="stop-color:#181330"/>
		</linearGradient>
		<path style="fill:url(#SVGID_00000081606212234476183350000000198675637094545080_);" d="M14,46.5l0.6-0.6c0.3-0.3,0.3-0.8,0-1
			c-0.3-0.3-0.8-0.3-1,0l-0.6,0.6c-0.3,0.3-0.3,0.8,0,1C13.2,46.8,13.7,46.8,14,46.5z"/>
		
			<linearGradient id="SVGID_00000161622598007436995270000010460072960488488349_" gradientUnits="userSpaceOnUse" x1="63.9215" y1="-0.3192" x2="6.6997" y2="56.9026">
			<stop  offset="5.208330e-03" style="stop-color:#75C9B3"/>
			<stop  offset="0.4792" style="stop-color:#26AFA4"/>
			<stop  offset="1" style="stop-color:#181330"/>
		</linearGradient>
		<path style="fill:url(#SVGID_00000161622598007436995270000010460072960488488349_);" d="M13.7,48.9l-0.6,0.6
			c-0.3,0.3-0.3,0.8,0,1c0.3,0.3,0.8,0.3,1,0l0.6-0.6c0.3-0.3,0.3-0.8,0-1C14.5,48.6,14,48.6,13.7,48.9z"/>
	</g>
</g>
</svg>
