<?xml version="1.0" encoding="utf-8"?>
<!-- Generator: Adobe Illustrator 28.0.0, SVG Export Plug-In . SVG Version: 6.00 Build 0)  -->
<svg version="1.1" id="Layer_1" xmlns="http://www.w3.org/2000/svg" xmlns:xlink="http://www.w3.org/1999/xlink" x="0px" y="0px"
	 viewBox="0 0 300 60" style="enable-background:new 0 0 300 60;" xml:space="preserve">
<style type="text/css">
	.st0{fill:#FFFFFF;}
	.st1{fill:url(#XMLID_00000007421312381295511480000009038287138461035917_);}
	.st2{fill:url(#XMLID_00000012442965988248125900000003952645379734248601_);}
</style>
<g>
	<path class="st0" d="M74.2,21.4l6.1,18.4l6.3-18.6c0.4-1,0.6-1.6,0.8-2c0-0.4,0.4-0.8,0.8-1c0.4-0.4,0.8-0.4,1.6-0.4
		c0.8,0,1,0,1.4,0.4c0.4,0.2,0.8,0.6,1,1c0.2,0.4,0.4,0.8,0.4,1.2s0,0.6,0,0.8c0,0.4,0,0.6-0.2,1c0,0.4-0.2,0.6-0.4,1l-6.7,18
		c-0.2,0.6-0.4,1.4-0.8,2c-0.2,0.6-0.6,1.2-0.8,1.6c-0.4,0.4-0.8,0.8-1.2,1.2c-0.6,0.4-1.2,0.4-2,0.4s-1.4,0-2-0.4
		c-0.6-0.2-1-0.6-1.2-1.2c-0.4-0.4-0.6-1-0.8-1.6c-0.2-0.6-0.4-1.2-0.8-2l-6.5-17.8c0-0.4-0.2-0.6-0.4-1c0-0.4-0.2-0.6-0.4-1
		c0-0.4,0-0.6,0-1c0-0.6,0.2-1.2,0.8-1.8c0.6-0.6,1.2-0.8,2-0.8c0.8,0,1.6,0.2,2,0.8c0.4,0.6,0.8,1.6,1.2,2.8L74.2,21.4z"/>
	<path class="st0" d="M108.4,37.1H98.3c0,1.2,0.2,2.2,0.8,3.2c0.4,0.8,1,1.6,1.8,2c0.8,0.4,1.6,0.6,2.6,0.6c1,0,1.2,0,1.6-0.2
		c0.6,0,1-0.4,1.4-0.6c0.4-0.4,1-0.6,1.4-1c0.4-0.4,1-0.8,1.6-1.4c0.2-0.2,0.6-0.4,1.2-0.4c0.6,0,1,0,1.2,0.4
		c0.4,0.2,0.4,0.8,0.4,1.2c0,0.4,0,1-0.6,1.6c-0.4,0.6-1,1.2-1.6,1.8c-0.8,0.6-1.6,1-2.8,1.4c-1.2,0.4-2.4,0.6-3.8,0.6
		c-3.4,0-5.7-1-7.7-2.8C94,41.6,93,39.1,93,35.7c0-3.4,0.2-3,0.6-4.2c0.4-1.4,1.2-2.4,2-3.4c0.8-1,2-1.6,3.2-2.2
		c1.2-0.4,2.6-0.8,4.2-0.8c1.6,0,3.8,0.4,5.2,1.2c1.4,0.8,2.6,2,3.2,3.4c0.8,1.4,1,2.8,1,4.2c0,1.4-0.4,2.2-1.2,2.6
		c-0.8,0.4-1.8,0.6-3.2,0.6L108.4,37.1z M98.5,34.1h9.3c0-1.8-0.6-3-1.4-4c-0.8-0.8-2-1.4-3.2-1.4c-1.2,0-2.4,0.4-3.2,1.4
		C99.3,30.9,98.7,32.3,98.5,34.1z"/>
	<path class="st0" d="M131,43.4v-0.6c-0.6,0.8-1.4,1.4-2,2c-0.6,0.4-1.4,0.8-2.2,1.2c-0.8,0.2-1.6,0.4-2.6,0.4c-1,0-2.4-0.2-3.4-0.8
		c-1-0.6-2-1.2-2.8-2.2c-0.8-1-1.4-2.2-1.8-3.4c-0.4-1.4-0.6-2.8-0.6-4.2c0-3.2,0.8-5.7,2.4-7.5s3.6-2.8,6.1-2.8
		c2.6,0,2.8,0.2,3.8,0.8c1,0.6,2,1.2,3,2.4v-7.5c0-1,0.2-1.8,0.6-2.4c0.4-0.6,1-0.8,1.8-0.8s1.4,0.2,1.8,0.8
		c0.4,0.4,0.6,1.2,0.6,2.2v22.6c0,1-0.2,1.8-0.6,2.2c-0.4,0.4-1,0.8-1.8,0.8s-1.2-0.2-1.8-0.8c-0.4-0.6-0.6-1.2-0.6-2.2V43.4z
		 M120.9,35.9c0,1.4,0.2,2.6,0.6,3.6s1,1.8,1.8,2.2c0.8,0.4,1.6,0.8,2.4,0.8s1.8-0.2,2.4-0.8c0.8-0.4,1.4-1.2,1.8-2.2
		c0.4-1,0.6-2.2,0.6-3.6c0-1.4-0.2-2.6-0.6-3.6c-0.4-1-1-1.8-1.8-2.2c-0.8-0.6-1.6-0.8-2.6-0.8c-1,0-1.8,0.2-2.6,0.8
		c-0.8,0.6-1.4,1.4-1.8,2.4c-0.4,1-0.6,2.2-0.6,3.4L120.9,35.9z"/>
	<path class="st0" d="M154,43.4c-1.2,1-2.4,1.8-3.6,2.2s-2.4,0.8-4,0.8c-1.6,0-2.4-0.2-3.4-0.8s-1.8-1.2-2.4-2.2
		c-0.6-0.8-0.8-1.8-0.8-3s0.4-2.6,1.4-3.6c0.8-1,2.2-1.6,3.6-2c0.4,0,1.2-0.2,2.4-0.6c1.2-0.2,2.4-0.6,3.4-0.8c1-0.2,2-0.4,3-0.8
		c0-1.4-0.4-2.4-0.8-3c-0.4-0.6-1.4-1-3-1c-1.6,0-2.2,0-3,0.6c-0.6,0.4-1.2,1-1.8,1.6c-0.4,0.8-0.8,1.2-1,1.4c0,0.2-0.6,0.4-1.2,0.4
		c-0.6,0-1,0-1.6-0.6c-0.4-0.4-0.6-0.8-0.6-1.4c0-1,0.4-1.8,1-2.6c0.6-0.8,1.6-1.6,3-2.2c1.4-0.6,3-0.8,5-0.8c2,0,4,0.2,5.3,0.8
		c1.2,0.6,2.2,1.4,2.8,2.6c0.6,1.2,0.8,2.8,0.8,4.6c0,1.8,0,2.2,0,3c0,0.8,0,1.8,0,2.8s0,2,0.4,3s0.4,1.8,0.4,2c0,0.6-0.2,1-0.8,1.4
		c-0.4,0.4-1,0.6-1.6,0.6c-0.6,0-1-0.2-1.6-0.8c-0.6-0.4-1-1.2-1.6-2.2L154,43.4z M153.6,35.9c-0.8,0.2-1.8,0.6-3.4,0.8
		c-1.4,0.4-2.4,0.6-3,0.6c-0.6,0-1,0.4-1.6,0.8s-0.8,1-0.8,1.8s0.2,1.4,0.8,2c0.6,0.6,1.4,0.8,2.4,0.8c1,0,2-0.2,2.8-0.6
		c0.8-0.4,1.4-1,2-1.8c0.4-0.8,0.8-2,0.8-3.8v-0.8V35.9z"/>
</g>
<g id="XMLID_00000106831503963620092580000016538748451067566253_">
	<g id="XMLID_00000158011721430228851630000001528508754716179634_">
		
			<linearGradient id="XMLID_00000071544358362289882970000012075086201424451774_" gradientUnits="userSpaceOnUse" x1="18.0325" y1="20.0323" x2="43.4951" y2="20.0323">
			<stop  offset="0" style="stop-color:#2BABE2"/>
			<stop  offset="0.17" style="stop-color:#24A8D9"/>
			<stop  offset="1" style="stop-color:#0099B0"/>
		</linearGradient>
		
			<path id="XMLID_00000158746130749418713620000013651689025684949931_" style="fill:url(#XMLID_00000071544358362289882970000012075086201424451774_);" d="
			M41,33.6c2.6-8.3,3.1-17.2,1.7-25.8c-2.5-0.9-5.3-1.4-8.1-1.4C28.2,6.4,22.4,8.9,18,13c3.5,1.2,6.9,3,9.9,5.1
			C33.7,22.1,38.2,27.9,41,33.6z"/>
		<path id="XMLID_00000031166412334801530420000018021015689087110797_" class="st0" d="M51.5,13.3c-1.2,12.9-5,25.5-11.3,36.9
			C34,38.9,23.3,29,11.1,24.6c-0.5,1.9-0.8,4-0.8,6.1c0,13.4,10.8,24.2,24.2,24.2s24.2-10.8,24.2-24.2C58.8,23.9,56,17.7,51.5,13.3z
			"/>
	</g>
	
		<linearGradient id="XMLID_00000125580252542728931500000009356005009785320866_" gradientUnits="userSpaceOnUse" x1="22.8556" y1="14.8574" x2="35.0872" y2="14.8574">
		<stop  offset="0" style="stop-color:#27B4E9"/>
		<stop  offset="1" style="stop-color:#2BABE2;stop-opacity:0"/>
	</linearGradient>
	
		<path id="XMLID_00000111897669534981629300000015999414151173628330_" style="fill:url(#XMLID_00000125580252542728931500000009356005009785320866_);" d="
		M22.9,12.2c0,0,8,3,12.2,8.5c0,0-1-7.3-4.9-11.6C30.2,9,26.8,9.5,22.9,12.2z"/>
</g>
<g>
	<path class="st0" d="M172,43.6V23.4c0-1,0.2-1.8,0.7-2.4c0.5-0.5,1.1-0.8,1.9-0.8c0.8,0,1.4,0.3,1.9,0.8c0.5,0.5,0.7,1.3,0.7,2.4
		v20.2c0,1.1-0.2,1.9-0.7,2.4s-1.1,0.8-1.9,0.8c-0.7,0-1.4-0.3-1.8-0.8C172.3,45.4,172,44.6,172,43.6z"/>
	<path class="st0" d="M187,30v0.6c0.8-1.1,1.8-1.9,2.8-2.4c1-0.5,2.1-0.8,3.4-0.8c1.3,0,2.4,0.3,3.4,0.8c1,0.5,1.7,1.3,2.2,2.3
		c0.3,0.6,0.5,1.2,0.6,1.9c0.1,0.7,0.1,1.5,0.1,2.6v8.9c0,1-0.2,1.7-0.7,2.2c-0.4,0.5-1,0.7-1.7,0.7c-0.7,0-1.3-0.3-1.7-0.8
		c-0.4-0.5-0.7-1.2-0.7-2.1v-7.9c0-1.6-0.2-2.8-0.7-3.6c-0.4-0.8-1.3-1.2-2.6-1.2c-0.9,0-1.6,0.3-2.3,0.8c-0.7,0.5-1.2,1.2-1.5,2.1
		c-0.2,0.7-0.4,2-0.4,4v6c0,1-0.2,1.7-0.7,2.2c-0.4,0.5-1,0.7-1.7,0.7c-0.7,0-1.3-0.3-1.7-0.8c-0.4-0.5-0.7-1.2-0.7-2.1V30.1
		c0-0.9,0.2-1.6,0.6-2c0.4-0.4,0.9-0.7,1.6-0.7c0.4,0,0.8,0.1,1.1,0.3c0.3,0.2,0.6,0.5,0.8,0.9C186.9,28.9,187,29.4,187,30z"/>
	<path class="st0" d="M203.9,27.8h1.1v-1.4c0-1.5,0.2-2.7,0.6-3.6c0.4-0.9,1-1.5,1.9-1.9c0.9-0.4,2.1-0.6,3.7-0.6
		c2.8,0,4.2,0.7,4.2,2c0,0.4-0.1,0.8-0.4,1.1c-0.3,0.3-0.6,0.5-1,0.5c-0.2,0-0.5,0-1-0.1c-0.5-0.1-0.8-0.1-1.2-0.1
		c-0.9,0-1.4,0.3-1.7,0.8c-0.2,0.5-0.4,1.2-0.4,2.2v1.1h1.2c1.8,0,2.7,0.5,2.7,1.6c0,0.8-0.2,1.3-0.7,1.5c-0.5,0.2-1.2,0.3-2,0.3
		h-1.2v12.6c0,0.9-0.2,1.7-0.7,2.2c-0.4,0.5-1,0.7-1.7,0.7c-0.7,0-1.2-0.2-1.7-0.7c-0.4-0.5-0.7-1.2-0.7-2.2V31.2h-1.3
		c-0.7,0-1.3-0.2-1.6-0.5c-0.4-0.3-0.6-0.7-0.6-1.2C201.5,28.4,202.3,27.8,203.9,27.8z"/>
	<path class="st0" d="M233.6,37.1c0,1.4-0.2,2.7-0.7,3.9c-0.4,1.2-1.1,2.2-1.9,3.1s-1.8,1.5-3,2c-1.2,0.5-2.5,0.7-3.9,0.7
		c-1.4,0-2.7-0.2-3.9-0.7c-1.2-0.5-2.2-1.1-3-2c-0.8-0.9-1.5-1.9-1.9-3.1c-0.4-1.2-0.7-2.5-0.7-3.9c0-1.4,0.2-2.8,0.7-4
		c0.4-1.2,1.1-2.2,1.9-3.1c0.8-0.9,1.8-1.5,3-2c1.2-0.5,2.5-0.7,3.9-0.7c1.4,0,2.8,0.2,3.9,0.7c1.2,0.5,2.2,1.1,3,2
		c0.8,0.9,1.5,1.9,1.9,3.1C233.4,34.3,233.6,35.6,233.6,37.1z M228.8,37.1c0-1.9-0.4-3.5-1.3-4.5c-0.9-1.1-2-1.6-3.5-1.6
		c-0.9,0-1.8,0.2-2.5,0.7c-0.7,0.5-1.3,1.2-1.6,2.1c-0.4,0.9-0.6,2-0.6,3.3c0,1.2,0.2,2.3,0.6,3.3c0.4,0.9,0.9,1.6,1.6,2.1
		c0.7,0.5,1.5,0.7,2.5,0.7c1.4,0,2.6-0.5,3.5-1.6C228.4,40.5,228.8,39,228.8,37.1z"/>
	<path class="st0" d="M252.7,40.5c0,1.3-0.3,2.4-1,3.4c-0.6,0.9-1.6,1.6-2.8,2.1c-1.3,0.5-2.8,0.7-4.6,0.7c-1.7,0-3.2-0.3-4.4-0.8
		c-1.2-0.5-2.1-1.2-2.7-2c-0.6-0.8-0.9-1.6-0.9-2.4c0-0.5,0.2-1,0.6-1.3c0.4-0.4,0.8-0.6,1.4-0.6c0.5,0,0.9,0.1,1.2,0.4
		c0.3,0.2,0.5,0.6,0.8,1c0.5,0.9,1.1,1.5,1.8,1.9c0.7,0.4,1.6,0.6,2.8,0.6c1,0,1.7-0.2,2.3-0.6c0.6-0.4,0.9-0.9,0.9-1.5
		c0-0.8-0.3-1.4-1-1.8c-0.6-0.4-1.7-0.8-3.1-1.1c-1.6-0.4-3-0.8-4-1.3c-1-0.4-1.9-1-2.5-1.8c-0.6-0.7-0.9-1.6-0.9-2.7
		c0-1,0.3-1.9,0.9-2.7c0.6-0.8,1.4-1.5,2.5-2c1.1-0.5,2.5-0.8,4-0.8c1.2,0,2.3,0.1,3.3,0.4c1,0.3,1.8,0.6,2.5,1s1.2,0.9,1.5,1.4
		c0.3,0.5,0.5,1,0.5,1.5c0,0.5-0.2,1-0.6,1.3c-0.4,0.3-0.9,0.5-1.6,0.5c-0.5,0-0.9-0.1-1.2-0.4c-0.3-0.3-0.7-0.7-1.2-1.3
		c-0.4-0.5-0.8-0.8-1.3-1.1c-0.5-0.3-1.2-0.4-2-0.4c-0.9,0-1.6,0.2-2.1,0.6c-0.6,0.4-0.9,0.8-0.9,1.4c0,0.5,0.2,0.9,0.6,1.2
		c0.4,0.3,1,0.6,1.7,0.8c0.7,0.2,1.7,0.5,2.9,0.8c1.5,0.4,2.7,0.8,3.6,1.3c0.9,0.5,1.6,1.1,2.1,1.8
		C252.5,38.9,252.7,39.6,252.7,40.5z"/>
	<path class="st0" d="M261.1,47.3l0.4-1.1l-5.9-14.8c-0.4-0.9-0.5-1.5-0.5-1.9c0-0.4,0.1-0.8,0.3-1.1c0.2-0.3,0.5-0.6,0.9-0.8
		c0.4-0.2,0.7-0.3,1.1-0.3c0.7,0,1.2,0.2,1.6,0.7c0.3,0.4,0.7,1.1,0.9,1.9l4,11.7l3.8-10.9c0.3-0.9,0.6-1.6,0.8-2.1
		c0.2-0.5,0.5-0.8,0.8-1c0.3-0.2,0.7-0.3,1.2-0.3c0.4,0,0.7,0.1,1,0.3c0.3,0.2,0.6,0.5,0.8,0.8c0.2,0.3,0.3,0.7,0.3,1
		c0,0.2-0.1,0.5-0.2,0.9c-0.1,0.4-0.2,0.8-0.4,1.2l-6.2,16.3c-0.5,1.4-1.1,2.6-1.6,3.4c-0.5,0.8-1.2,1.4-2,1.9s-2,0.7-3.4,0.7
		c-1.4,0-2.4-0.2-3.1-0.5c-0.7-0.3-1-0.9-1-1.7c0-0.5,0.2-1,0.5-1.3c0.3-0.3,0.8-0.4,1.5-0.4c0.3,0,0.5,0,0.8,0.1
		c0.3,0.1,0.6,0.1,0.8,0.1c0.5,0,1-0.1,1.3-0.2s0.6-0.4,0.8-0.8C260.5,48.7,260.8,48.1,261.1,47.3z"/>
	<path class="st0" d="M291,40.5c0,1.3-0.3,2.4-1,3.4c-0.6,0.9-1.6,1.6-2.8,2.1c-1.3,0.5-2.8,0.7-4.6,0.7c-1.7,0-3.2-0.3-4.4-0.8
		c-1.2-0.5-2.1-1.2-2.7-2c-0.6-0.8-0.9-1.6-0.9-2.4c0-0.5,0.2-1,0.6-1.3c0.4-0.4,0.8-0.6,1.4-0.6c0.5,0,0.9,0.1,1.2,0.4
		c0.3,0.2,0.5,0.6,0.8,1c0.5,0.9,1.1,1.5,1.8,1.9c0.7,0.4,1.6,0.6,2.8,0.6c1,0,1.7-0.2,2.3-0.6c0.6-0.4,0.9-0.9,0.9-1.5
		c0-0.8-0.3-1.4-1-1.8c-0.6-0.4-1.7-0.8-3.1-1.1c-1.6-0.4-3-0.8-4-1.3c-1-0.4-1.9-1-2.5-1.8c-0.6-0.7-0.9-1.6-0.9-2.7
		c0-1,0.3-1.9,0.9-2.7c0.6-0.8,1.4-1.5,2.5-2c1.1-0.5,2.5-0.8,4-0.8c1.2,0,2.3,0.1,3.3,0.4c1,0.3,1.8,0.6,2.5,1s1.2,0.9,1.5,1.4
		c0.3,0.5,0.5,1,0.5,1.5c0,0.5-0.2,1-0.6,1.3c-0.4,0.3-0.9,0.5-1.6,0.5c-0.5,0-0.9-0.1-1.2-0.4c-0.3-0.3-0.7-0.7-1.2-1.3
		c-0.4-0.5-0.8-0.8-1.3-1.1c-0.5-0.3-1.2-0.4-2-0.4c-0.9,0-1.6,0.2-2.1,0.6c-0.6,0.4-0.9,0.8-0.9,1.4c0,0.5,0.2,0.9,0.6,1.2
		c0.4,0.3,1,0.6,1.7,0.8c0.7,0.2,1.7,0.5,2.9,0.8c1.5,0.4,2.7,0.8,3.6,1.3c0.9,0.5,1.6,1.1,2.1,1.8C290.8,38.9,291,39.6,291,40.5z"
		/>
</g>
</svg>
